<?xml version="1.0" encoding="utf-8"?>
<!-- Generator: Adobe Illustrator 17.0.2, SVG Export Plug-In . SVG Version: 6.00 Build 0)  -->
<!DOCTYPE svg PUBLIC "-//W3C//DTD SVG 1.1//EN" "http://www.w3.org/Graphics/SVG/1.1/DTD/svg11.dtd">
<svg version="1.1" id="Layer_1" xmlns="http://www.w3.org/2000/svg" xmlns:xlink="http://www.w3.org/1999/xlink" x="0px" y="0px"
	 width="850px" height="567px" viewBox="0 0 850 567" enable-background="new 0 0 850 567" xml:space="preserve">
<rect x="-0.25" fill="#005A70" width="850.5" height="567"/>
<path fill="#FFFFFF" d="M248.71,291.72L235.69,238l-14.92,53.72h-14.92l-19.13-58.74c-0.54-1.62-1.22-1.89-2.84-2.3l-5.84-1.22
	l1.63-7.46h27.27v7.46l-8.68,1.08l15.19,48.7l15.6-55.21h14.24l13.16,55.07l15.05-48.56l-8.81-1.08l1.49-7.46h25.63v7.46l-4.88,0.81
	c-2.31,0.41-2.85,0.95-3.39,2.71l-18.31,58.74H248.71L248.71,291.72z"/>
<path fill="#FFFFFF" d="M337.92,250.49c-0.27-15.46-7.32-19.94-15.59-19.94c-9.09,0-16.68,4.89-17.77,19.94H337.92L337.92,250.49z
	 M348.64,287.25c-6.78,3.8-14.92,6.11-24.69,6.11c-24.55,0-32.55-16.14-32.55-36.35c0-24.83,13.83-36.36,30.93-36.36
	c16.55,0,27.95,8.95,27.95,32.42c0,1.76-0.14,4.47-0.28,6.78h-45.57c0.4,13.7,5.96,23.06,20.75,23.06c7.59,0,12.34-1.35,19.53-4.88
	L348.64,287.25L348.64,287.25z"/>
<path fill="#FFFFFF" d="M373.97,274.36c4.34,4.07,11.26,8.82,18.58,8.82c12.75,0,17.77-10.58,17.77-27.81
	c0-17.5-6.78-24.41-16.41-24.41c-7.87,0-15.19,4.2-19.94,7.59L373.97,274.36L373.97,274.36z M360,291.72
	c0.82-5.02,1.63-12.88,1.63-19.4v-70.4c0-1.5-0.41-2.45-1.76-2.85l-8-2.58l1.22-7.19h20.89v39.2c6.38-4.07,13.7-7.87,23.2-7.87
	c15.19,0,25.64,9.77,25.64,33.64c0,27.94-11.53,39.07-28.62,39.07c-8.14,0-15.19-2.85-21.03-8.41l-0.41,0.27l-0.68,6.51H360
	L360,291.72L360,291.72z"/>
<path fill="#FFFFFF" d="M518.23,222l-1.5,7.46l9.23,1.08l-18.86,45.58l-18.04-45.58l8.96-1.08V222h-28.08v0.02h-19.37
	c-1.08,0-1.08-0.54-1.08-1.36v-16.55h-8c-1.77,13.84-4.75,18.04-15.33,19.4v7.87h9.9c1.09,0,1.09,0.54,1.09,1.35v42.32
	c0,12.2,5.83,18.31,18.85,18.31c6.92,0,13.43-2.04,18.86-4.21l-2.97-8.66c-3.67,1.48-8.41,2.71-12.62,2.71
	c-7.74,0-9.77-3.26-9.77-11.8v-40.02h25.95c0.53,0.32,0.88,0.8,1.27,1.74l24.42,57.79l-7.87,18.04c-0.81,1.9-1.36,2.72-2.98,2.85
	l-9.77,1.22v7.46h36.77v-7.32l-13.16-1.36l32.96-79.35c0.67-1.5,1.76-2.04,3.39-2.31l4.61-0.68V222L518.23,222L518.23,222z"/>
<path fill="#FFFFFF" d="M576.31,268.98h6.9c10.51,0,16.69-8.2,16.69-15.97c0-7.91-5.75-15.97-16.69-15.97h-6.9V268.98z
	 M576.31,294.14c0,9.79,0.14,21.3,0.57,25.75h-22c0.43-4.45,0.71-15.96,0.71-25.75v-48.33c0-9.78-0.28-20.14-0.71-24.45h30.78
	c22.3,0,35.1,13.37,35.1,31.79c0,18.56-13.1,31.5-35.25,31.5h-9.21L576.31,294.14z"/>
<path fill="#FFFFFF" d="M647.48,238.83v21.43h8.2c9.79,0,19.28-0.29,23.74-0.57v18.27c-4.46-0.29-13.95-0.58-23.74-0.58h-8.2v25.61
	h10.5c9.93,0,20.29-0.14,24.59-0.43v18.26c-4.31-0.29-14.67-0.57-24.59-0.57h-31.94c0.29-7.91,0.58-19.28,0.58-25.75v-47.17
	c0-9.93-0.29-21.29-0.58-25.6h30.79c9.78,0,20.14-0.43,24.6-0.72v18.41c-4.46-0.43-14.82-0.57-24.6-0.57h-9.35V238.83L647.48,238.83
	z"/>
<path fill="#FFFFFF" d="M539.37,342.32c1.12-0.35,1.56-0.29,2,0.22c0.42,0.56,1.04,3,0.68,5.56c-1.54,11.04-10.78,11.2-14.65,10.67
	c-0.38-0.05-0.43-0.12-0.3-0.62C529.84,348.56,535.54,343.31,539.37,342.32 M487.95,354.59c2.97,7.4,8.24,16.08,18.21,17.47
	c1.75,0.24,5.79,0.44,8.67-2.85c2.71-2.99,2.94-4.67,3.05-5.43c0.12-0.87-0.79-2.58-1.54-4.53c-0.1-0.2-0.15-1.17,0.8-0.72
	c0.66,0.29,2.5,1.24,5.67,2.19c0.32,0.05,0.36,0.57,0.35,0.62c-0.06,0.43-0.12,0.93-0.19,1.38c-1.25,8.91,4.68,14.31,9.61,14.99
	c1.37,0.2,4.22-0.23,6.33-1.65c2.11-1.42,3.94-3.14,5.43-4.2c1.71-1.36,3.33-2.09,5.58-1.78c1.93,0.27,2.22,1.78,2.11,2.59
	c-0.22,1.56-1.43,2.92-1.84,3.24c-0.22,0.23-0.24,0.35-0.25,0.85c-0.09,1.58,0.87,3.81,2.67,4.06c1.31,0.19,3.72-1.13,4.13-4.06
	c0.17-1.25-0.32-5-3.46-7.54c-3.08-2.52-5.71-2.75-6.96-2.93c-1.12-0.16-3.31,0.1-4.2,0.54c-2.25,1.08-5.51,3.5-7.18,4.47
	c-1.78,0.9-3.23,1.26-4.53,1.08c-2.93-0.41-5.07-4.13-4.45-8.62c0.05-0.38,0.26-1.44,0.3-1.74c0.05-0.38,0.33-0.47,0.51-0.44
	c10.46,1.52,15.8-4.4,17.33-8.95c1.11,3.39,3.67,6.92,8.04,7.54c4.36,0.61,7.02-1.62,7.48-4.93c0.16-1.13-0.22-2.58-0.57-3.13
	c-0.48-0.63-1.48-1.73-2.97-1.93c-1.56-0.22-2.33,0.24-2.8,0.43c-0.14,0.18-0.54,0.76-0.34,1.16c0.46,2.1-1.35,3.69-2.78,3.48
	c-3.12-0.43-3.89-3.07-4.64-6.37c0.15-2,0.01-4.7-0.19-6.82c0.01-0.51,0.04-0.76,0.5-0.89c0.34-0.15,2.82-0.68,6.75-0.14
	c3.93,0.56,5.31,1.12,5.93,1.28c0.55,0.14,0.57,0.01,0.72-0.15c0.15-0.17,0.41-0.7,0.51-1.39c0.21-1.55-0.02-3.43-1.65-5.05
	c-0.44-0.45-0.85-0.76-1.2-0.94c-0.38-0.1-1.41-0.37-2.29-0.5c-3.11-0.44-6.1,0.04-9.32,1.24c-0.33,0.15-0.74-0.2-0.77-0.43
	c-0.83-5.7-11.58-26.21-11.04-28c1.04-3.52,4.03-3.88,7.01-2.9c1.34,0.41,3.96-1.52,4.8-4.33c0.76-2.6-0.15-6.39-4.93-7.8
	c-5.71-1.69-10.92,3.17-11.96,10.6c-0.46,3.28,4.06,10.37,6.17,15.68c3.29,8.29,5.76,15.59,6.06,18.81c0.04,0.4-0.08,0.56-0.35,0.72
	c-3.48,2.62-7.74,4.83-11.97,4.23c-4.18-0.58-4.95-3.74-4.77-5.05c0.18-1.3,1.62-2.5,3.06-2.3c0.75,0.11,1.42,0.26,2.2,0.62
	c0.48,0.19,0.99-0.25,1.3-0.71c0.33-0.53,0.44-1.33,0.51-2.28c0.12-1.82-0.34-4.37-3.46-4.81c-2.25-0.32-6.56,0.99-7.36,6.74
	c-0.71,5.04,2.97,9.69,7.89,10.38c0.88,0.13,2.2,0.24,2.77,0.2c0.78-0.1,0.81,0.11,0.35,0.68c-0.44,0.44-4.57,5.01-6.83,12.07
	c-0.11,0.3-0.43,0.39-0.69,0.35c-2.71-0.57-5.03-2.22-5.88-3.43c-0.24-0.15-0.05-0.52,0.05-0.82c0.24-0.34,2.93-3.72,3.23-5.84
	c0.28-2-1.05-4.33-3.05-6.4c-2.09-1.88-5.19-2.44-6.75-2.66s-3.15,0.26-5.38,2.04c-2.21,1.8-3.18,2.8-5.4,4.66
	c-1.94,1.62-4.04,2.93-6.54,2.58c-2.43-0.34-5.03-3.11-4.59-6.24c0.31-2.25,1.74-2.93,4.8-2.51c2.12,0.3,2.46,0.15,2.95-0.23
	c0.6-0.22,1.82-1.2,2.12-3.38c0.42-3.05-1.71-4.62-3.7-4.89c-1.99-0.28-3.13,0.57-4.3,1.23c-1.13,0.74-4.05,3.45-4.9,9.62
	C485.42,345.47,486.67,351.49,487.95,354.59"/>
<path fill="#FFFFFF" d="M469.33,317.42l0.13-0.92l-1.05-0.15c-0.26-0.04-0.28-0.08-0.24-0.38l0.71-5.02
	c0.05-0.36,0.09-0.81,0.09-1.11c-0.02-1.48-0.69-2.24-2.21-2.24c-1.5,0-2.79,1.07-3.95,2.04l0.26-1.85h-2.82l-0.13,0.9l0.99,0.3
	c0.17,0.04,0.21,0.19,0.17,0.39l-0.9,6.59c-0.04,0.28-0.09,0.34-0.36,0.38l-0.9,0.13l-0.13,0.93h4.36l0.13-0.92l-1.16-0.15
	c-0.28-0.04-0.3-0.08-0.26-0.38l0.65-4.76c1.42-1.27,2.51-2.13,3.6-2.13c0.76,0,0.95,0.47,0.95,1.11c0,0.35-0.06,0.75-0.12,1.16
	l-0.52,3.76l-0.35,2.26l0.04,0.04h3.02L469.33,317.42L469.33,317.42z M452.74,312.33c0.37-1.8,1.51-3.36,3.2-3.36
	c0.86,0,1.24,0.4,1.24,0.97C457.17,311.69,453.97,312.18,452.74,312.33 M457.62,315.58c-0.94,0.43-1.76,0.69-2.68,0.69
	c-1.87,0-2.32-1.01-2.32-2.68c2.08-0.22,6.16-0.92,6.16-3.75c0-1.25-0.71-2.24-2.64-2.24c-3.09,0-5.24,2.79-5.24,6.18
	c0,2.25,0.95,3.85,3.66,3.85c1.2,0,2.38-0.28,3.37-0.78L457.62,315.58L457.62,315.58z M443.71,312.33c0.38-1.8,1.51-3.36,3.2-3.36
	c0.86,0,1.23,0.4,1.23,0.97C448.15,311.69,444.95,312.18,443.71,312.33 M448.6,315.58c-0.93,0.43-1.76,0.69-2.67,0.69
	c-1.87,0-2.32-1.01-2.32-2.68c2.08-0.22,6.16-0.92,6.16-3.75c0-1.25-0.71-2.24-2.64-2.24c-3.09,0-5.24,2.79-5.24,6.18
	c0,2.25,0.95,3.85,3.67,3.85c1.2,0,2.38-0.28,3.37-0.78L448.6,315.58L448.6,315.58z M438.62,317.42l0.13-0.92l-1.66-0.13
	c-0.28-0.02-0.3-0.08-0.26-0.37l0.67-4.91c1.03-1.2,1.98-2,2.47-2c0.17,0,0.19,0.04,0.19,0.19l0.04,1.27l1.31,0.06l0.37-2.82
	c-0.31-0.09-0.79-0.17-1.2-0.17c-1.27,0-2.49,1.2-3.15,2.08l0.25-1.89h-2.77l-0.13,0.9l1.01,0.3c0.15,0.04,0.21,0.19,0.17,0.39
	l-0.92,6.61c-0.04,0.26-0.08,0.36-0.32,0.37l-0.94,0.11l-0.13,0.93L438.62,317.42L438.62,317.42z M432.37,315.62
	c-0.65,0.35-1.72,0.67-2.73,0.67c-1.52,0-2.36-0.86-2.36-2.77c0-3.33,1.78-4.57,3.52-4.57c0.51,0,0.9,0.06,1.16,0.15
	c0.17,0.06,0.22,0.15,0.22,0.28l0.06,1.23l1.18,0.06l0.36-2.49c-0.39-0.21-1.33-0.58-2.7-0.58c-2.98,0-5.54,1.8-5.54,6.12
	c0,2.34,1.12,3.91,3.85,3.91c1.2,0,2.62-0.35,3.39-0.82L432.37,315.62L432.37,315.62z M424.71,307.46l0.45-3.18
	c-0.6-0.25-1.76-0.66-3.39-0.66c-2.74,0-5.11,1.29-5.11,4.1c0,2.3,1.66,2.88,3.22,3.43c1.33,0.47,2.58,0.94,2.58,2.43
	c0,1.82-1.27,2.68-3.35,2.68c-1.57,0-2.28-0.26-2.32-0.71l-0.11-1.69h-1.24l-0.41,3.07c0.52,0.28,2.19,0.71,3.87,0.71
	c2.94,0,5.33-1.21,5.33-4.32c0-2.36-1.79-2.98-3.37-3.56c-1.31-0.49-2.43-0.95-2.43-2.3c0-1.7,1.57-2.41,3.24-2.41
	c1.5,0,1.72,0.35,1.74,0.69l0.06,1.61L424.71,307.46L424.71,307.46z M403.96,312.33c0.37-1.8,1.52-3.36,3.2-3.36
	c0.86,0,1.24,0.4,1.24,0.97C408.4,311.69,405.19,312.18,403.96,312.33 M408.84,315.58c-0.94,0.43-1.76,0.69-2.68,0.69
	c-1.87,0-2.32-1.01-2.32-2.68c2.08-0.22,6.16-0.92,6.16-3.75c0-1.25-0.71-2.24-2.64-2.24c-3.09,0-5.24,2.79-5.24,6.18
	c0,2.25,0.95,3.85,3.67,3.85c1.2,0,2.38-0.28,3.37-0.78L408.84,315.58L408.84,315.58z M401.05,317.42l0.13-0.92l-1.03-0.15
	c-0.28-0.04-0.3-0.08-0.26-0.38l0.71-5.02c0.06-0.37,0.09-0.84,0.09-1.16c-0.02-1.4-0.71-2.19-2.15-2.19c-1.5,0-2.77,1.05-3.91,2
	l0.9-6.32h-2.9l-0.13,0.9l1.01,0.28c0.15,0.04,0.21,0.15,0.17,0.39l-1.55,11.12c-0.04,0.3-0.08,0.34-0.36,0.38l-0.92,0.13
	l-0.13,0.93h4.36l0.13-0.92l-1.16-0.15c-0.28-0.04-0.3-0.08-0.26-0.38l0.66-4.76c1.23-1.08,2.6-2.15,3.65-2.15
	c0.75,0,0.88,0.66,0.88,1.18c0,0.35-0.04,0.77-0.09,1.1l-0.58,4.16l-0.34,1.85l0.04,0.06h3.04L401.05,317.42L401.05,317.42z
	 M389.32,315.89c-0.52,0.2-1.16,0.39-1.74,0.39c-0.86,0-1.14-0.32-1.14-0.99c0-0.21,0.02-0.41,0.06-0.67l0.75-5.53h2.85l0.17-1.29
	h-2.68c-0.15,0-0.15-0.05-0.13-0.19l0.34-2.28h-1.1c-0.47,1.87-1.08,2.45-2.43,2.66l-0.17,1.1h1.35c0.13,0,0.13,0.08,0.11,0.19
	l-0.8,5.84c-0.02,0.21-0.04,0.43-0.04,0.6c0,1.29,0.71,1.93,2.28,1.93c0.88,0,1.93-0.26,2.62-0.58L389.32,315.89L389.32,315.89z
	 M377.92,311.33l0.15-1.03h-2.32l-0.43,0.22l-0.69,4.81c-0.06,0.36-0.13,0.49-0.5,0.64c-0.43,0.17-1.12,0.3-2.19,0.3
	c-1.57,0-2.81-0.41-2.81-2.11c0-2.06,1.87-2.53,4.16-2.53l0.19-1.35h-1.05c-1.37,0-2.19-0.71-2.19-1.89c0-1.87,1.61-2.23,2.77-2.23
	c0.51,0,1.16,0.04,1.63,0.21c0.21,0.08,0.21,0.17,0.22,0.39l0.08,1.33l1.24,0.09l0.43-2.57c-0.62-0.41-2.12-0.84-3.67-0.84
	c-2.68,0-4.43,1.44-4.43,3.65c0,1.18,0.71,2.11,1.7,2.49c-1.51,0.41-2.86,1.51-2.86,3.54c0,1.95,1.35,3.18,4.51,3.18
	c1.67,0,3.43-0.34,4.29-0.95l0.69-5.02c0.02-0.19,0.11-0.25,0.34-0.26L377.92,311.33L377.92,311.33z M354.86,318.47
	c-0.56,1.03-1.01,1.78-2.06,1.78c-0.69,0-1.25-0.24-1.68-0.54l-0.69,1.07c0.3,0.3,1.27,0.82,2.41,0.82c1.78,0,2.55-0.9,3.5-2.73
	l5.54-10.8l-0.13-0.26h-2.97l-0.11,0.9l1.16,0.19l-3.11,6.23l-1.12-4.85l-0.43-2.36l-0.09-0.11h-2.43l-0.17,0.9l0.77,0.17
	c0.19,0.05,0.26,0.09,0.32,0.32l2.02,7.96L354.86,318.47L354.86,318.47z M351.64,317.42l0.13-0.92l-1.03-0.15
	c-0.28-0.04-0.3-0.08-0.26-0.38l0.71-5.02c0.06-0.37,0.09-0.84,0.09-1.16c-0.02-1.4-0.71-2.19-2.15-2.19c-1.5,0-2.77,1.05-3.91,2
	l0.9-6.32h-2.9l-0.13,0.9l1.01,0.28c0.15,0.04,0.21,0.15,0.17,0.39l-1.55,11.12c-0.04,0.3-0.08,0.34-0.36,0.38l-0.92,0.13
	l-0.13,0.93h4.36l0.13-0.92l-1.16-0.15c-0.28-0.04-0.3-0.08-0.26-0.38l0.65-4.76c1.24-1.08,2.6-2.15,3.65-2.15
	c0.75,0,0.88,0.66,0.88,1.18c0,0.35-0.04,0.77-0.09,1.1l-0.58,4.16l-0.34,1.85l0.04,0.06h3.05V317.42L351.64,317.42z M334.36,311.18
	c0.79-0.75,2.21-2.06,3.41-2.06c0.83,0,1.4,0.63,1.4,2.32c0,2.03-0.81,4.83-2.98,4.83c-0.99,0-1.8-0.58-2.38-1.23L334.36,311.18
	L334.36,311.18z M334.98,321.39l0.13-0.99l-1.72-0.15c-0.24-0.02-0.26-0.07-0.23-0.36l0.45-3.39c0.71,0.71,1.76,1.14,2.79,1.14
	c3.14,0,4.49-3.44,4.49-6.36c0-2.62-1.1-3.67-2.58-3.67c-1.44,0-2.75,0.99-3.8,1.93l0.26-1.74h-2.88l-0.11,0.9l0.99,0.3
	c0.15,0.04,0.21,0.17,0.17,0.39l-1.2,8.76l-0.54,3.16l0.08,0.08L334.98,321.39L334.98,321.39z M327.38,314.03
	c-0.88,0.95-2.12,2.15-3.24,2.15c-0.97,0-1.61-0.58-1.61-2.27c0-1.95,0.71-4.92,3.05-4.92c0.96,0,1.87,0.52,2.36,1.01L327.38,314.03
	z M329.78,317.42l0.15-0.92l-0.92-0.13c-0.28-0.04-0.3-0.08-0.26-0.37l0.82-5.9c0.11-0.78,0.3-1.55,0.49-2.3h-1.57l-0.3,0.86
	c-0.62-0.54-1.57-1.05-2.66-1.05c-3.5,0-4.7,3.57-4.7,6.46c0,2.43,1.03,3.57,2.8,3.57c1.42,0,2.51-0.86,3.58-1.93l0.06,0.02
	l-0.22,1.68L329.78,317.42L329.78,317.42z M317.22,317.42l0.13-0.92l-1.67-0.13c-0.28-0.02-0.3-0.08-0.26-0.37l0.67-4.91
	c1.03-1.2,1.98-2,2.47-2c0.17,0,0.19,0.04,0.19,0.19l0.04,1.27l1.31,0.06l0.37-2.82c-0.32-0.09-0.78-0.17-1.19-0.17
	c-1.27,0-2.49,1.2-3.15,2.08l0.24-1.89h-2.77l-0.13,0.9l1.01,0.3c0.15,0.04,0.21,0.19,0.17,0.39l-0.92,6.61
	c-0.04,0.26-0.07,0.36-0.32,0.37l-0.93,0.11l-0.13,0.93L317.22,317.42L317.22,317.42z M309.54,314.01c-0.88,0.96-2.1,2.14-3.27,2.14
	c-0.94,0-1.59-0.52-1.59-2.19c0-1.95,0.69-4.96,3.05-4.96c0.95,0,1.89,0.51,2.38,1.03L309.54,314.01L309.54,314.01z M309.06,317.94
	c-0.24,1.65-1.14,2.34-2.7,2.34c-1.35,0-2.54-0.54-2.85-0.73l-0.62,1.22c0.58,0.35,1.94,0.82,3.65,0.82c2.21,0,3.76-1.1,4.1-3.54
	l1.05-7.8c0.11-0.8,0.3-1.55,0.52-2.45h-1.57l-0.3,0.86c-0.62-0.54-1.61-1.05-2.71-1.05c-3.54,0-4.66,3.71-4.66,6.46
	c0,2.43,1.06,3.54,2.84,3.54c1.46,0,2.64-1.03,3.58-1.95L309.06,317.94L309.06,317.94z M296.57,316.35c-1.54,0-2.32-0.94-2.32-2.7
	c0-3.17,1.42-4.68,3.41-4.68c1.46,0,2.25,0.82,2.25,2.53C299.9,314.78,298.52,316.35,296.57,316.35 M296.42,317.64
	c3.37,0,5.22-2.38,5.22-6.12c0-2.19-1.01-3.91-3.8-3.91c-3.46,0-5.31,2.58-5.31,6.12C292.53,316.07,293.73,317.64,296.42,317.64
	 M284.99,311.18c0.79-0.75,2.21-2.06,3.41-2.06c0.82,0,1.4,0.63,1.4,2.32c0,2.03-0.8,4.83-2.98,4.83c-0.99,0-1.8-0.58-2.38-1.23
	L284.99,311.18L284.99,311.18z M285.6,321.39l0.13-0.99l-1.72-0.15c-0.24-0.02-0.26-0.07-0.23-0.36l0.45-3.39
	c0.71,0.71,1.76,1.14,2.79,1.14c3.14,0,4.49-3.44,4.49-6.36c0-2.62-1.1-3.67-2.58-3.67c-1.44,0-2.75,0.99-3.8,1.93l0.26-1.74h-2.88
	l-0.11,0.9l0.99,0.3c0.15,0.04,0.21,0.17,0.17,0.39l-1.2,8.76l-0.54,3.16l0.07,0.08L285.6,321.39L285.6,321.39z M274.24,318.47
	c-0.56,1.03-1.01,1.78-2.06,1.78c-0.69,0-1.25-0.24-1.69-0.54l-0.69,1.07c0.3,0.3,1.27,0.82,2.42,0.82c1.78,0,2.54-0.9,3.5-2.73
	l5.54-10.8l-0.13-0.26h-2.98l-0.11,0.9l1.16,0.19l-3.11,6.23l-1.12-4.85l-0.43-2.36l-0.09-0.11h-2.43l-0.17,0.9l0.77,0.17
	c0.19,0.05,0.26,0.09,0.32,0.32l2.02,7.96L274.24,318.47L274.24,318.47z M269.09,317.42l0.13-0.95l-2.04-0.15
	c-0.28-0.02-0.28-0.09-0.24-0.36l1.52-10.76h2.9c0.21,0,0.24,0.02,0.26,0.2l0.08,1.63h1.18l0.43-3.16h-11l-0.43,3.16h1.18l0.51-1.63
	c0.06-0.19,0.11-0.2,0.32-0.2h2.88l-1.5,10.76c-0.04,0.28-0.09,0.36-0.34,0.37l-1.87,0.13l-0.13,0.95L269.09,317.42L269.09,317.42z
	 M251.54,321.39l1.76-12.3h3.14l0.19-1.29h-3.01c-0.15,0-0.15-0.05-0.13-0.19l0.19-1.33c0.17-1.22,0.62-1.86,1.72-1.86
	c0.92,0,1.68,0.5,1.97,0.69l0.71-1.14c-0.43-0.37-1.48-0.9-2.77-0.9c-1.81,0-2.96,0.88-3.25,3.02l-0.24,1.7h-1.46l-0.19,1.29h1.31
	c0.13,0,0.15,0.08,0.13,0.19l-1.72,12.11L251.54,321.39L251.54,321.39z M243.81,316.35c-1.54,0-2.32-0.94-2.32-2.7
	c0-3.17,1.42-4.68,3.41-4.68c1.46,0,2.25,0.82,2.25,2.53C247.14,314.78,245.75,316.35,243.81,316.35 M243.66,317.64
	c3.37,0,5.22-2.38,5.22-6.12c0-2.19-1.01-3.91-3.8-3.91c-3.46,0-5.31,2.58-5.31,6.12C239.76,316.07,240.96,317.64,243.66,317.64
	 M233.71,317.42l0.13-0.92l-1.1-0.15c-0.28-0.04-0.3-0.08-0.26-0.38l1.79-12.69h-2.96l-0.13,0.9l0.99,0.26
	c0.17,0.05,0.22,0.19,0.19,0.39l-1.46,10.36l-0.39,2.15l0.04,0.07L233.71,317.42L233.71,317.42z M226.53,314.03
	c-0.88,0.95-2.12,2.15-3.24,2.15c-0.97,0-1.61-0.58-1.61-2.27c0-1.95,0.71-4.92,3.05-4.92c0.96,0,1.87,0.52,2.36,1.01L226.53,314.03
	z M228.92,317.42l0.15-0.92l-0.92-0.13c-0.28-0.04-0.3-0.08-0.26-0.37l0.82-5.9c0.11-0.78,0.3-1.55,0.49-2.3h-1.57l-0.3,0.86
	c-0.62-0.54-1.57-1.05-2.66-1.05c-3.5,0-4.69,3.57-4.69,6.46c0,2.43,1.03,3.57,2.8,3.57c1.42,0,2.51-0.86,3.58-1.93l0.06,0.02
	l-0.23,1.68L228.92,317.42z M218.55,317.42l0.13-0.92l-1.05-0.15c-0.26-0.04-0.28-0.08-0.24-0.38l0.71-5.02
	c0.06-0.36,0.09-0.81,0.09-1.11c-0.02-1.48-0.69-2.24-2.21-2.24c-1.5,0-2.79,1.07-3.95,2.04l0.26-1.85h-2.83l-0.13,0.9l0.99,0.3
	c0.17,0.04,0.2,0.19,0.17,0.39l-0.9,6.59c-0.04,0.28-0.09,0.34-0.36,0.38l-0.9,0.13l-0.13,0.93h4.36l0.13-0.92l-1.16-0.15
	c-0.28-0.04-0.3-0.08-0.26-0.38l0.65-4.76c1.42-1.27,2.51-2.13,3.59-2.13c0.77,0,0.96,0.47,0.96,1.11c0,0.35-0.06,0.75-0.11,1.16
	l-0.52,3.76l-0.36,2.26l0.04,0.04h3.03L218.55,317.42L218.55,317.42z M204.91,317.42l0.13-0.92l-1.67-0.13
	c-0.28-0.02-0.3-0.08-0.26-0.37l0.67-4.91c1.03-1.2,1.98-2,2.47-2c0.17,0,0.19,0.04,0.19,0.19l0.04,1.27l1.31,0.06l0.38-2.82
	c-0.32-0.09-0.79-0.17-1.2-0.17c-1.27,0-2.49,1.2-3.14,2.08l0.24-1.89h-2.77l-0.13,0.9l1.01,0.3c0.15,0.04,0.21,0.19,0.17,0.39
	l-0.91,6.61c-0.04,0.26-0.07,0.36-0.32,0.37l-0.94,0.11l-0.13,0.93L204.91,317.42L204.91,317.42z M198.66,317.42l0.11-0.9
	l-1.03-0.17c-0.15-0.02-0.21-0.15-0.17-0.36l1.14-8.12l-0.06-0.08h-3.05l-0.13,0.92l1.09,0.15c0.28,0.03,0.3,0.08,0.26,0.37
	l-0.64,4.77c-1.25,1.11-2.4,2.08-3.54,2.08c-0.77,0-0.99-0.32-0.99-1.07c0-0.45,0.04-0.8,0.09-1.14l0.84-6.01l-0.06-0.08h-2.88
	l-0.15,0.92l0.97,0.15c0.28,0.03,0.3,0.08,0.26,0.37l-0.73,5.06c-0.04,0.34-0.08,0.79-0.08,1.07c0,1.66,0.8,2.26,2.36,2.26
	c1.33,0,2.77-1.2,3.78-2.06l-0.28,1.85h2.89L198.66,317.42L198.66,317.42z M183.01,316.35c-1.54,0-2.32-0.94-2.32-2.7
	c0-3.17,1.42-4.68,3.41-4.68c1.46,0,2.25,0.82,2.25,2.53C186.34,314.78,184.96,316.35,183.01,316.35 M182.86,317.64
	c3.37,0,5.22-2.38,5.22-6.12c0-2.19-1.01-3.91-3.8-3.91c-3.46,0-5.31,2.58-5.31,6.12C178.97,316.07,180.16,317.64,182.86,317.64
	 M175.11,314.55c-0.17,1.16-0.52,1.74-1.66,1.74c-0.66,0-1.14-0.13-1.31-0.21c-0.15-0.07-0.17-0.15-0.17-0.26v-1.35l-1.2-0.07
	l-0.34,2.58c0.34,0.24,1.5,0.65,2.92,0.65c2.21,0,3.14-0.95,3.42-2.98l1.33-9.42c0.04-0.26,0.06-0.3,0.32-0.34l1.25-0.15l0.13-0.91
	h-5.07l-0.13,0.91l1.55,0.13c0.24,0.02,0.28,0.09,0.24,0.35L175.11,314.55L175.11,314.55z M161.69,311.92h-4.3l3.03-6.53
	L161.69,311.92z M165.28,317.42l0.13-0.88l-0.8-0.2c-0.24-0.06-0.36-0.13-0.39-0.32l-2.47-12.15h-2.11l-5.65,12.04
	c-0.09,0.18-0.26,0.35-0.54,0.43l-0.8,0.2l-0.13,0.88h4.17l0.15-0.88l-1.44-0.17l1.4-3.09h5.13l0.58,3.09l-1.59,0.17l-0.13,0.88
	H165.28z"/>
</svg>
