<svg xmlns="http://www.w3.org/2000/svg" width="850" height="567" viewBox="0 0 850 567"><rect x="-.25" width="850.5" height="567" fill="#005A70"/><path d="M248.71 291.72l-13.02-53.72-14.92 53.72h-14.92l-19.13-58.74c-.54-1.62-1.22-1.89-2.84-2.3l-5.84-1.22 1.63-7.46h27.27v7.46l-8.68 1.08 15.19 48.7 15.6-55.21h14.24l13.16 55.07 15.05-48.56-8.81-1.08 1.49-7.46h25.63v7.46l-4.88.81c-2.31.41-2.85.95-3.39 2.71l-18.31 58.74h-14.52z" fill="#fff"/><path d="M337.92 250.49c-.27-15.46-7.32-19.94-15.59-19.94-9.09 0-16.68 4.89-17.77 19.94h33.36zm10.72 36.76c-6.78 3.8-14.92 6.11-24.69 6.11-24.55 0-32.55-16.14-32.55-36.35 0-24.83 13.83-36.36 30.93-36.36 16.55 0 27.95 8.95 27.95 32.42 0 1.76-.14 4.47-.28 6.78h-45.57c.4 13.7 5.96 23.06 20.75 23.06 7.59 0 12.34-1.35 19.53-4.88l3.93 9.22z" fill="#fff"/><path d="M373.97 274.36c4.34 4.07 11.26 8.82 18.58 8.82 12.75 0 17.77-10.58 17.77-27.81 0-17.5-6.78-24.41-16.41-24.41-7.87 0-15.19 4.2-19.94 7.59v35.81zm-13.97 17.36c.82-5.02 1.63-12.88 1.63-19.4v-70.4c0-1.5-.41-2.45-1.76-2.85l-8-2.58 1.22-7.19h20.89v39.2c6.38-4.07 13.7-7.87 23.2-7.87 15.19 0 25.64 9.77 25.64 33.64 0 27.94-11.53 39.07-28.62 39.07-8.14 0-15.19-2.85-21.03-8.41l-.41.27-.68 6.51h-12.08v.01z" fill="#fff"/><path d="M518.23 222l-1.5 7.46 9.23 1.08-18.86 45.58-18.04-45.58 8.96-1.08v-7.46h-28.08v.02h-19.37c-1.08 0-1.08-.54-1.08-1.36v-16.55h-8c-1.77 13.84-4.75 18.04-15.33 19.4v7.87h9.9c1.09 0 1.09.54 1.09 1.35v42.32c0 12.2 5.83 18.31 18.85 18.31 6.92 0 13.43-2.04 18.86-4.21l-2.97-8.66c-3.67 1.48-8.41 2.71-12.62 2.71-7.74 0-9.77-3.26-9.77-11.8v-40.02h25.95c.53.32.88.8 1.27 1.74l24.42 57.79-7.87 18.04c-.81 1.9-1.36 2.72-2.98 2.85l-9.77 1.22v7.46h36.77v-7.32l-13.16-1.36 32.96-79.35c.67-1.5 1.76-2.04 3.39-2.31l4.61-.68v-7.46h-26.86z" fill="#fff"/><path d="M576.31 268.98h6.9c10.51 0 16.69-8.2 16.69-15.97 0-7.91-5.75-15.97-16.69-15.97h-6.9v31.94zm0 25.16c0 9.79.14 21.3.57 25.75h-22c.43-4.45.71-15.96.71-25.75v-48.33c0-9.78-.28-20.14-.71-24.45h30.78c22.3 0 35.1 13.37 35.1 31.79 0 18.56-13.1 31.5-35.25 31.5h-9.21l.01 9.49z" fill="#fff"/><path d="M647.48 238.83v21.43h8.2c9.79 0 19.28-.29 23.74-.57v18.27c-4.46-.29-13.95-.58-23.74-.58h-8.2v25.61h10.5c9.93 0 20.29-.14 24.59-.43v18.26c-4.31-.29-14.67-.57-24.59-.57h-31.94c.29-7.91.58-19.28.58-25.75v-47.17c0-9.93-.29-21.29-.58-25.6h30.79c9.78 0 20.14-.43 24.6-.72v18.41c-4.46-.43-14.82-.57-24.6-.57h-9.35v-.02z" fill="#fff"/><path d="M539.37 342.32c1.12-.35 1.56-.29 2 .22.42.56 1.04 3 .68 5.56-1.54 11.04-10.78 11.2-14.65 10.67-.38-.05-.43-.12-.3-.62 2.74-9.59 8.44-14.84 12.27-15.83m-51.42 12.27c2.97 7.4 8.24 16.08 18.21 17.47 1.75.24 5.79.44 8.67-2.85 2.71-2.99 2.94-4.67 3.05-5.43.12-.87-.79-2.58-1.54-4.53-.1-.2-.15-1.17.8-.72.66.29 2.5 1.24 5.67 2.19.32.05.36.57.35.62-.06.43-.12.93-.19 1.38-1.25 8.91 4.68 14.31 9.61 14.99 1.37.2 4.22-.23 6.33-1.65 2.11-1.42 3.94-3.14 5.43-4.2 1.71-1.36 3.33-2.09 5.58-1.78 1.93.27 2.22 1.78 2.11 2.59-.22 1.56-1.43 2.92-1.84 3.24-.22.23-.24.35-.25.85-.09 1.58.87 3.81 2.67 4.06 1.31.19 3.72-1.13 4.13-4.06.17-1.25-.32-5-3.46-7.54-3.08-2.52-5.71-2.75-6.96-2.93-1.12-.16-3.31.1-4.2.54-2.25 1.08-5.51 3.5-7.18 4.47-1.78.9-3.23 1.26-4.53 1.08-2.93-.41-5.07-4.13-4.45-8.62.05-.38.26-1.44.3-1.74.05-.38.33-.47.51-.44 10.46 1.52 15.8-4.4 17.33-8.95 1.11 3.39 3.67 6.92 8.04 7.54 4.36.61 7.02-1.62 7.48-4.93.16-1.13-.22-2.58-.57-3.13-.48-.63-1.48-1.73-2.97-1.93-1.56-.22-2.33.24-2.8.43-.14.18-.54.76-.34 1.16.46 2.1-1.35 3.69-2.78 3.48-3.12-.43-3.89-3.07-4.64-6.37.15-2 .01-4.7-.19-6.82.01-.51.04-.76.5-.89.34-.15 2.82-.68 6.75-.14 3.93.56 5.31 1.12 5.93 1.28.55.14.57.01.72-.15.15-.17.41-.7.51-1.39.21-1.55-.02-3.43-1.65-5.05-.44-.45-.85-.76-1.2-.94-.38-.1-1.41-.37-2.29-.5-3.11-.44-6.1.04-9.32 1.24-.33.15-.74-.2-.77-.43-.83-5.7-11.58-26.21-11.04-28 1.04-3.52 4.03-3.88 7.01-2.9 1.34.41 3.96-1.52 4.8-4.33.76-2.6-.15-6.39-4.93-7.8-5.71-1.69-10.92 3.17-11.96 10.6-.46 3.28 4.06 10.37 6.17 15.68 3.29 8.29 5.76 15.59 6.06 18.81.04.4-.08.56-.35.72-3.48 2.62-7.74 4.83-11.97 4.23-4.18-.58-4.95-3.74-4.77-5.05.18-1.3 1.62-2.5 3.06-2.3.75.11 1.42.26 2.2.62.48.19.99-.25 1.3-.71.33-.53.44-1.33.51-2.28.12-1.82-.34-4.37-3.46-4.81-2.25-.32-6.56.99-7.36 6.74-.71 5.04 2.97 9.69 7.89 10.38.88.13 2.2.24 2.77.2.78-.1.81.11.35.68-.44.44-4.57 5.01-6.83 12.07-.11.3-.43.39-.69.35-2.71-.57-5.03-2.22-5.88-3.43-.24-.15-.05-.52.05-.82.24-.34 2.93-3.72 3.23-5.84.28-2-1.05-4.33-3.05-6.4-2.09-1.88-5.19-2.44-6.75-2.66-1.56-.22-3.15.26-5.38 2.04-2.21 1.8-3.18 2.8-5.4 4.66-1.94 1.62-4.04 2.93-6.54 2.58-2.43-.34-5.03-3.11-4.59-6.24.31-2.25 1.74-2.93 4.8-2.51 2.12.3 2.46.15 2.95-.23.6-.22 1.82-1.2 2.12-3.38.42-3.05-1.71-4.62-3.7-4.89-1.99-.28-3.13.57-4.3 1.23-1.13.74-4.05 3.45-4.9 9.62-.51 3.75.74 9.77 2.02 12.87" fill="#fff"/><path d="M469.33 317.42l.13-.92-1.05-.15c-.26-.04-.28-.08-.24-.38l.71-5.02c.05-.36.09-.81.09-1.11-.02-1.48-.69-2.24-2.21-2.24-1.5 0-2.79 1.07-3.95 2.04l.26-1.85h-2.82l-.13.9.99.3c.17.04.21.19.17.39l-.9 6.59c-.04.28-.09.34-.36.38l-.9.13-.13.93h4.36l.13-.92-1.16-.15c-.28-.04-.3-.08-.26-.38l.65-4.76c1.42-1.27 2.51-2.13 3.6-2.13.76 0 .95.47.95 1.11 0 .35-.06.75-.12 1.16l-.52 3.76-.35 2.26.04.04h3.02v.02zm-16.59-5.09c.37-1.8 1.51-3.36 3.2-3.36.86 0 1.24.4 1.24.97-.01 1.75-3.21 2.24-4.44 2.39m4.88 3.25c-.94.43-1.76.69-2.68.69-1.87 0-2.32-1.01-2.32-2.68 2.08-.22 6.16-.92 6.16-3.75 0-1.25-.71-2.24-2.64-2.24-3.09 0-5.24 2.79-5.24 6.18 0 2.25.95 3.85 3.66 3.85 1.2 0 2.38-.28 3.37-.78l-.31-1.27zm-13.91-3.25c.38-1.8 1.51-3.36 3.2-3.36.86 0 1.23.4 1.23.97.01 1.75-3.19 2.24-4.43 2.39m4.89 3.25c-.93.43-1.76.69-2.67.69-1.87 0-2.32-1.01-2.32-2.68 2.08-.22 6.16-.92 6.16-3.75 0-1.25-.71-2.24-2.64-2.24-3.09 0-5.24 2.79-5.24 6.18 0 2.25.95 3.85 3.67 3.85 1.2 0 2.38-.28 3.37-.78l-.33-1.27zm-9.98 1.84l.13-.92-1.66-.13c-.28-.02-.3-.08-.26-.37l.67-4.91c1.03-1.2 1.98-2 2.47-2 .17 0 .19.04.19.19l.04 1.27 1.31.06.37-2.82c-.31-.09-.79-.17-1.2-.17-1.27 0-2.49 1.2-3.15 2.08l.25-1.89h-2.77l-.13.9 1.01.3c.15.04.21.19.17.39l-.92 6.61c-.04.26-.08.36-.32.37l-.94.11-.13.93h4.87zm-6.25-1.8c-.65.35-1.72.67-2.73.67-1.52 0-2.36-.86-2.36-2.77 0-3.33 1.78-4.57 3.52-4.57.51 0 .9.06 1.16.15.17.06.22.15.22.28l.06 1.23 1.18.06.36-2.49c-.39-.21-1.33-.58-2.7-.58-2.98 0-5.54 1.8-5.54 6.12 0 2.34 1.12 3.91 3.85 3.91 1.2 0 2.62-.35 3.39-.82l-.41-1.19zm-7.66-8.16l.45-3.18c-.6-.25-1.76-.66-3.39-.66-2.74 0-5.11 1.29-5.11 4.1 0 2.3 1.66 2.88 3.22 3.43 1.33.47 2.58.94 2.58 2.43 0 1.82-1.27 2.68-3.35 2.68-1.57 0-2.28-.26-2.32-.71l-.11-1.69h-1.24l-.41 3.07c.52.28 2.19.71 3.87.71 2.94 0 5.33-1.21 5.33-4.32 0-2.36-1.79-2.98-3.37-3.56-1.31-.49-2.43-.95-2.43-2.3 0-1.7 1.57-2.41 3.24-2.41 1.5 0 1.72.35 1.74.69l.06 1.61 1.24.11zm-20.75 4.87c.37-1.8 1.52-3.36 3.2-3.36.86 0 1.24.4 1.24.97 0 1.75-3.21 2.24-4.44 2.39m4.88 3.25c-.94.43-1.76.69-2.68.69-1.87 0-2.32-1.01-2.32-2.68 2.08-.22 6.16-.92 6.16-3.75 0-1.25-.71-2.24-2.64-2.24-3.09 0-5.24 2.79-5.24 6.18 0 2.25.95 3.85 3.67 3.85 1.2 0 2.38-.28 3.37-.78l-.32-1.27zm-7.79 1.84l.13-.92-1.03-.15c-.28-.04-.3-.08-.26-.38l.71-5.02c.06-.37.09-.84.09-1.16-.02-1.4-.71-2.19-2.15-2.19-1.5 0-2.77 1.05-3.91 2l.9-6.32h-2.9l-.13.9 1.01.28c.15.04.21.15.17.39l-1.55 11.12c-.04.3-.08.34-.36.38l-.92.13-.13.93h4.36l.13-.92-1.16-.15c-.28-.04-.3-.08-.26-.38l.66-4.76c1.23-1.08 2.6-2.15 3.65-2.15.75 0 .88.66.88 1.18 0 .35-.04.77-.09 1.1l-.58 4.16-.34 1.85.04.06h3.04v.02zm-11.73-1.53c-.52.2-1.16.39-1.74.39-.86 0-1.14-.32-1.14-.99 0-.21.02-.41.06-.67l.75-5.53h2.85l.17-1.29h-2.68c-.15 0-.15-.05-.13-.19l.34-2.28h-1.1c-.47 1.87-1.08 2.45-2.43 2.66l-.17 1.1h1.35c.13 0 .13.08.11.19l-.8 5.84c-.02.21-.04.43-.04.6 0 1.29.71 1.93 2.28 1.93.88 0 1.93-.26 2.62-.58l-.3-1.18zm-11.4-4.56l.15-1.03h-2.32l-.43.22-.69 4.81c-.06.36-.13.49-.5.64-.43.17-1.12.3-2.19.3-1.57 0-2.81-.41-2.81-2.11 0-2.06 1.87-2.53 4.16-2.53l.19-1.35h-1.05c-1.37 0-2.19-.71-2.19-1.89 0-1.87 1.61-2.23 2.77-2.23.51 0 1.16.04 1.63.21.21.08.21.17.22.39l.08 1.33 1.24.09.43-2.57c-.62-.41-2.12-.84-3.67-.84-2.68 0-4.43 1.44-4.43 3.65 0 1.18.71 2.11 1.7 2.49-1.51.41-2.86 1.51-2.86 3.54 0 1.95 1.35 3.18 4.51 3.18 1.67 0 3.43-.34 4.29-.95l.69-5.02c.02-.19.11-.25.34-.26l.74-.07zm-23.06 7.14c-.56 1.03-1.01 1.78-2.06 1.78-.69 0-1.25-.24-1.68-.54l-.69 1.07c.3.3 1.27.82 2.41.82 1.78 0 2.55-.9 3.5-2.73l5.54-10.8-.13-.26h-2.97l-.11.9 1.16.19-3.11 6.23-1.12-4.85-.43-2.36-.09-.11h-2.43l-.17.9.77.17c.19.05.26.09.32.32l2.02 7.96-.73 1.31zm-3.22-1.05l.13-.92-1.03-.15c-.28-.04-.3-.08-.26-.38l.71-5.02c.06-.37.09-.84.09-1.16-.02-1.4-.71-2.19-2.15-2.19-1.5 0-2.77 1.05-3.91 2l.9-6.32h-2.9l-.13.9 1.01.28c.15.04.21.15.17.39l-1.55 11.12c-.04.3-.08.34-.36.38l-.92.13-.13.93h4.36l.13-.92-1.16-.15c-.28-.04-.3-.08-.26-.38l.65-4.76c1.24-1.08 2.6-2.15 3.65-2.15.75 0 .88.66.88 1.18 0 .35-.04.77-.09 1.1l-.58 4.16-.34 1.85.04.06h3.05v.02zm-17.28-6.24c.79-.75 2.21-2.06 3.41-2.06.83 0 1.4.63 1.4 2.32 0 2.03-.81 4.83-2.98 4.83-.99 0-1.8-.58-2.38-1.23l.55-3.86zm.62 10.21l.13-.99-1.72-.15c-.24-.02-.26-.07-.23-.36l.45-3.39c.71.71 1.76 1.14 2.79 1.14 3.14 0 4.49-3.44 4.49-6.36 0-2.62-1.1-3.67-2.58-3.67-1.44 0-2.75.99-3.8 1.93l.26-1.74h-2.88l-.11.9.99.3c.15.04.21.17.17.39l-1.2 8.76-.54 3.16.08.08h3.7zm-7.6-7.36c-.88.95-2.12 2.15-3.24 2.15-.97 0-1.61-.58-1.61-2.27 0-1.95.71-4.92 3.05-4.92.96 0 1.87.52 2.36 1.01l-.56 4.03zm2.4 3.39l.15-.92-.92-.13c-.28-.04-.3-.08-.26-.37l.82-5.9c.11-.78.3-1.55.49-2.3h-1.57l-.3.86c-.62-.54-1.57-1.05-2.66-1.05-3.5 0-4.7 3.57-4.7 6.46 0 2.43 1.03 3.57 2.8 3.57 1.42 0 2.51-.86 3.58-1.93l.06.02-.22 1.68 2.73.01zm-12.56 0l.13-.92-1.67-.13c-.28-.02-.3-.08-.26-.37l.67-4.91c1.03-1.2 1.98-2 2.47-2 .17 0 .19.04.19.19l.04 1.27 1.31.06.37-2.82c-.32-.09-.78-.17-1.19-.17-1.27 0-2.49 1.2-3.15 2.08l.24-1.89h-2.77l-.13.9 1.01.3c.15.04.21.19.17.39l-.92 6.61c-.04.26-.07.36-.32.37l-.93.11-.13.93h4.87zm-7.68-3.41c-.88.96-2.1 2.14-3.27 2.14-.94 0-1.59-.52-1.59-2.19 0-1.95.69-4.96 3.05-4.96.95 0 1.89.51 2.38 1.03l-.57 3.98zm-.48 3.93c-.24 1.65-1.14 2.34-2.7 2.34-1.35 0-2.54-.54-2.85-.73l-.62 1.22c.58.35 1.94.82 3.65.82 2.21 0 3.76-1.1 4.1-3.54l1.05-7.8c.11-.8.3-1.55.52-2.45h-1.57l-.3.86c-.62-.54-1.61-1.05-2.71-1.05-3.54 0-4.66 3.71-4.66 6.46 0 2.43 1.06 3.54 2.84 3.54 1.46 0 2.64-1.03 3.58-1.95l-.33 2.28zm-12.49-1.59c-1.54 0-2.32-.94-2.32-2.7 0-3.17 1.42-4.68 3.41-4.68 1.46 0 2.25.82 2.25 2.53-.01 3.28-1.39 4.85-3.34 4.85m-.15 1.29c3.37 0 5.22-2.38 5.22-6.12 0-2.19-1.01-3.91-3.8-3.91-3.46 0-5.31 2.58-5.31 6.12 0 2.34 1.2 3.91 3.89 3.91m-11.43-6.46c.79-.75 2.21-2.06 3.41-2.06.82 0 1.4.63 1.4 2.32 0 2.03-.8 4.83-2.98 4.83-.99 0-1.8-.58-2.38-1.23l.55-3.86zm.61 10.21l.13-.99-1.72-.15c-.24-.02-.26-.07-.23-.36l.45-3.39c.71.71 1.76 1.14 2.79 1.14 3.14 0 4.49-3.44 4.49-6.36 0-2.62-1.1-3.67-2.58-3.67-1.44 0-2.75.99-3.8 1.93l.26-1.74h-2.88l-.11.9.99.3c.15.04.21.17.17.39l-1.2 8.76-.54 3.16.07.08h3.71zm-11.36-2.92c-.56 1.03-1.01 1.78-2.06 1.78-.69 0-1.25-.24-1.69-.54l-.69 1.07c.3.3 1.27.82 2.42.82 1.78 0 2.54-.9 3.5-2.73l5.54-10.8-.13-.26h-2.98l-.11.9 1.16.19-3.11 6.23-1.12-4.85-.43-2.36-.09-.11h-2.43l-.17.9.77.17c.19.05.26.09.32.32l2.02 7.96-.72 1.31zm-5.15-1.05l.13-.95-2.04-.15c-.28-.02-.28-.09-.24-.36l1.52-10.76h2.9c.21 0 .24.02.26.2l.08 1.63h1.18l.43-3.16h-11l-.43 3.16h1.18l.51-1.63c.06-.19.11-.2.32-.2h2.88l-1.5 10.76c-.04.28-.09.36-.34.37l-1.87.13-.13.95 6.16.01zm-17.55 3.97l1.76-12.3h3.14l.19-1.29h-3.01c-.15 0-.15-.05-.13-.19l.19-1.33c.17-1.22.62-1.86 1.72-1.86.92 0 1.68.5 1.97.69l.71-1.14c-.43-.37-1.48-.9-2.77-.9-1.81 0-2.96.88-3.25 3.02l-.24 1.7h-1.46l-.19 1.29h1.31c.13 0 .15.08.13.19l-1.72 12.11 1.65.01zm-7.73-5.04c-1.54 0-2.32-.94-2.32-2.7 0-3.17 1.42-4.68 3.41-4.68 1.46 0 2.25.82 2.25 2.53-.01 3.28-1.4 4.85-3.34 4.85m-.15 1.29c3.37 0 5.22-2.38 5.22-6.12 0-2.19-1.01-3.91-3.8-3.91-3.46 0-5.31 2.58-5.31 6.12-.01 2.34 1.19 3.91 3.89 3.91m-9.95-.22l.13-.92-1.1-.15c-.28-.04-.3-.08-.26-.38l1.79-12.69h-2.96l-.13.9.99.26c.17.05.22.19.19.39l-1.46 10.36-.39 2.15.04.07 3.16.01zm-7.18-3.39c-.88.95-2.12 2.15-3.24 2.15-.97 0-1.61-.58-1.61-2.27 0-1.95.71-4.92 3.05-4.92.96 0 1.87.52 2.36 1.01l-.56 4.03zm2.39 3.39l.15-.92-.92-.13c-.28-.04-.3-.08-.26-.37l.82-5.9c.11-.78.3-1.55.49-2.3h-1.57l-.3.86c-.62-.54-1.57-1.05-2.66-1.05-3.5 0-4.69 3.57-4.69 6.46 0 2.43 1.03 3.57 2.8 3.57 1.42 0 2.51-.86 3.58-1.93l.06.02-.23 1.68 2.73.01zm-10.37 0l.13-.92-1.05-.15c-.26-.04-.28-.08-.24-.38l.71-5.02c.06-.36.09-.81.09-1.11-.02-1.48-.69-2.24-2.21-2.24-1.5 0-2.79 1.07-3.95 2.04l.26-1.85h-2.83l-.13.9.99.3c.17.04.2.19.17.39l-.9 6.59c-.04.28-.09.34-.36.38l-.9.13-.13.93h4.36l.13-.92-1.16-.15c-.28-.04-.3-.08-.26-.38l.65-4.76c1.42-1.27 2.51-2.13 3.59-2.13.77 0 .96.47.96 1.11 0 .35-.06.75-.11 1.16l-.52 3.76-.36 2.26.04.04h3.03v.02zm-13.64 0l.13-.92-1.67-.13c-.28-.02-.3-.08-.26-.37l.67-4.91c1.03-1.2 1.98-2 2.47-2 .17 0 .19.04.19.19l.04 1.27 1.31.06.38-2.82c-.32-.09-.79-.17-1.2-.17-1.27 0-2.49 1.2-3.14 2.08l.24-1.89h-2.77l-.13.9 1.01.3c.15.04.21.19.17.39l-.91 6.61c-.04.26-.07.36-.32.37l-.94.11-.13.93h4.86zm-6.25 0l.11-.9-1.03-.17c-.15-.02-.21-.15-.17-.36l1.14-8.12-.06-.08h-3.05l-.13.92 1.09.15c.28.03.3.08.26.37l-.64 4.77c-1.25 1.11-2.4 2.08-3.54 2.08-.77 0-.99-.32-.99-1.07 0-.45.04-.8.09-1.14l.84-6.01-.06-.08h-2.88l-.15.92.97.15c.28.03.3.08.26.37l-.73 5.06c-.04.34-.08.79-.08 1.07 0 1.66.8 2.26 2.36 2.26 1.33 0 2.77-1.2 3.78-2.06l-.28 1.85h2.89v.02zm-15.65-1.07c-1.54 0-2.32-.94-2.32-2.7 0-3.17 1.42-4.68 3.41-4.68 1.46 0 2.25.82 2.25 2.53-.01 3.28-1.39 4.85-3.34 4.85m-.15 1.29c3.37 0 5.22-2.38 5.22-6.12 0-2.19-1.01-3.91-3.8-3.91-3.46 0-5.31 2.58-5.31 6.12 0 2.34 1.19 3.91 3.89 3.91m-7.75-3.09c-.17 1.16-.52 1.74-1.66 1.74-.66 0-1.14-.13-1.31-.21-.15-.07-.17-.15-.17-.26v-1.35l-1.2-.07-.34 2.58c.34.24 1.5.65 2.92.65 2.21 0 3.14-.95 3.42-2.98l1.33-9.42c.04-.26.06-.3.32-.34l1.25-.15.13-.91h-5.07l-.13.91 1.55.13c.24.02.28.09.24.35l-1.28 9.33zm-13.42-2.63h-4.3l3.03-6.53 1.27 6.53zm3.59 5.5l.13-.88-.8-.2c-.24-.06-.36-.13-.39-.32l-2.47-12.15h-2.11l-5.65 12.04c-.09.18-.26.35-.54.43l-.8.2-.13.88h4.17l.15-.88-1.44-.17 1.4-3.09h5.13l.58 3.09-1.59.17-.13.88h4.49z" fill="#fff"/></svg>