<?xml version="1.0" encoding="utf-8"?>
<!-- Generator: Adobe Illustrator 17.0.2, SVG Export Plug-In . SVG Version: 6.00 Build 0)  -->
<!DOCTYPE svg PUBLIC "-//W3C//DTD SVG 1.1//EN" "http://www.w3.org/Graphics/SVG/1.1/DTD/svg11.dtd">
<svg version="1.1" id="Layer_1" xmlns="http://www.w3.org/2000/svg" xmlns:xlink="http://www.w3.org/1999/xlink" x="0px" y="0px"
	 width="850px" height="450px" viewBox="0 0 850 450" enable-background="new 0 0 850 450" xml:space="preserve">
<rect id="background" fill="#6B919D" width="850" height="450"/>
<g id="wordmark">
	<path id="h" fill="#FFFFFF" d="M263.78,181.878c9.031-14.091,20.592-21.857,35.403-21.857c13.002,0,23.313,6.869,23.313,19.871
		c0,12.105-14.458,46.434-14.458,53.113c0,3.795,1.985,5.236,5.413,5.236c2.354,0,4.163-0.353,6.692-1.265l-3.618,13.37
		c-4.868,1.633-10.296,2.354-15.532,2.354c-11.737,0-18.607-4.516-18.607-15.547c0-10.296,14.091-43.17,14.091-52.024
		c0-6.31-4.339-9.561-9.928-9.561c-14.826,0-27.652,21.313-41.199,74.778h-24.019L248.6,149.373
		c1.088-4.163,0.736-5.427-1.618-5.427h-9.398l3.795-13.547h15.723c8.84,0,17.341-0.897,21.489-1.809L263.78,181.878z"/>
	<path id="a" fill="#FFFFFF" d="M331.311,219.634c0-30.344,19.871-59.613,48.95-59.613c13.547,0,22.945,7.237,26.02,19.327
		l4.692-16.974h9.031c6.501,0,11.561-0.721,15.179-1.809l-13.738,52.024c-2.339,8.855-4.692,16.077-4.692,19.871
		c0,4.163,2.162,5.78,5.604,5.78c2.339,0,3.971-0.353,6.677-1.265l-3.618,13.37c-4.868,1.265-9.384,2.354-14.811,2.354
		c-12.458,0-19.136-5.427-19.136-15.547c-7.237,9.222-17.341,15.547-29.27,15.547C343.417,252.699,331.311,238.785,331.311,219.634z
		 M400.853,192.909c0-10.84-6.677-18.077-16.429-18.077c-16.268,0-29.093,21.68-29.093,44.449c0,11.737,6.869,18.607,16.62,18.607
		C388.027,237.887,400.853,214.398,400.853,192.909z"/>
	<path id="r" fill="#FFFFFF" d="M482.477,177.009c6.325-10.664,15.165-17.517,26.005-17.517c11.208,0,18.253,7.046,18.607,17.15
		c0.367,12.473-7.222,23.122-17.886,23.122c-7.766,0-12.282-4.516-12.458-10.84c-0.176-5.589,4.148-11.193,10.473-12.09
		c-1.074-1.633-3.795-2.721-6.501-2.721c-14.635,0-21.857,16.62-30.167,47.332l-7.766,28.902h-24.21l18.974-68.997
		c1.088-4.163,0.545-5.427-1.633-5.427h-10.825l3.604-13.547h16.797c8.855,0,17.165-0.897,21.504-1.809L482.477,177.009z"/>
	<path id="p" fill="#FFFFFF" d="M509.809,267.863h7.943c1.985,0,3.251-0.721,4.339-4.692l22.401-81.824
		c1.074-4.163,0.545-5.427-1.633-5.427h-10.296l3.618-13.547h16.253c8.855,0,17.165-0.897,21.489-1.809l-3.604,13.194
		c6.869-8.134,16.077-13.738,26.917-13.738c19.871,0,31.432,14.458,31.432,33.962c0,30.711-18.062,58.716-47.332,58.716
		c-14.444,0-23.842-7.589-26.917-19.15l-7.943,29.623c-1.088,3.971-0.191,4.692,1.809,4.692h9.207l-3.618,13.547H506.19
		L509.809,267.863z M604.458,193.439c-0.176-11.737-6.869-18.607-16.62-18.607c-16.253,0-28.358,23.489-28.181,44.979
		c0,9.222,6.148,17.886,16.62,17.886C591.632,237.696,604.634,216.207,604.458,193.439z"/>
</g>
</svg>
