<?xml version="1.0" encoding="utf-8"?>
<!-- Generator: Adobe Illustrator 17.0.2, SVG Export Plug-In . SVG Version: 6.00 Build 0)  -->
<!DOCTYPE svg PUBLIC "-//W3C//DTD SVG 1.1//EN" "http://www.w3.org/Graphics/SVG/1.1/DTD/svg11.dtd">
<svg version="1.1" id="Layer_1" xmlns="http://www.w3.org/2000/svg" xmlns:xlink="http://www.w3.org/1999/xlink" x="0px" y="0px"
	 width="850px" height="567px" viewBox="0 0 850 567" enable-background="new 0 0 850 567" xml:space="preserve">
<rect id="background" fill="#D2576D" width="850" height="567"/>
<g>
	<g>
		<path fill="#FFFFFF" d="M302.14,362.563c0,4.328-1.091,7.648-3.275,9.962c-2.181,2.311-5.337,3.468-9.461,3.468h-1.895v14.768
			h-7.579v-40.738h10.339C298.184,350.024,302.14,354.203,302.14,362.563z M287.51,369.417h1.449c1.858,0,3.243-0.51,4.153-1.531
			c0.91-1.022,1.367-2.694,1.367-5.016c0-2.136-0.419-3.721-1.255-4.753c-0.836-1.03-2.128-1.544-3.872-1.544h-1.842L287.51,369.417
			L287.51,369.417z"/>
		<path fill="#FFFFFF" d="M305.486,390.761v-40.738h7.579v34.106h10.506v6.632L305.486,390.761L305.486,390.761z"/>
		<path fill="#FFFFFF" d="M349.86,390.761l-2.341-10.281h-10.615l-2.341,10.281h-7.579l10.087-40.905h10.283l10.113,40.905H349.86z
			 M346.1,373.764l-2.173-9.474c-0.13-0.576-0.422-2.02-0.878-4.334c-0.454-2.311-0.73-3.859-0.82-4.639
			c-0.244,1.598-0.549,3.357-0.921,5.281c-0.372,1.921-1.337,6.311-2.898,13.165h7.69V373.764z"/>
		<path fill="#FFFFFF" d="M371.254,390.761h-7.55v-34.077h-7.802v-6.661h23.154v6.661h-7.802V390.761z"/>
		<path fill="#FFFFFF" d="M390.929,390.761h-7.526v-40.738h18.252v6.549h-10.726v11.313h10.002v6.547h-10.002V390.761z"/>
		<path fill="#FFFFFF" d="M434.788,370.338c0,6.743-1.266,11.926-3.79,15.548c-2.529,3.622-6.141,5.432-10.841,5.432
			c-4.718,0-8.341-1.805-10.867-5.419c-2.526-3.612-3.79-8.818-3.79-15.617c0-6.743,1.263-11.913,3.79-15.508
			c2.526-3.593,6.167-5.39,10.923-5.39c4.7,0,8.304,1.807,10.811,5.419C433.532,358.417,434.788,363.595,434.788,370.338z
			 M413.247,370.338c0,4.644,0.586,8.181,1.754,10.615c1.173,2.433,2.89,3.652,5.156,3.652c4.57,0,6.855-4.756,6.855-14.267
			s-2.266-14.267-6.799-14.267c-2.303,0-4.039,1.21-5.212,3.636C413.834,362.13,413.247,365.675,413.247,370.338z"/>
		<path fill="#FFFFFF" d="M448.298,374.908v15.853h-7.579v-40.738h9.92c4.198,0,7.298,0.995,9.293,2.983
			c1.998,1.988,2.996,5.024,2.996,9.11c0,5.146-1.738,8.741-5.209,10.785l7.829,17.86h-8.11l-6.435-15.853H448.298z
			 M448.298,368.388h1.953c1.783,0,3.062-0.507,3.843-1.521c0.78-1.011,1.173-2.521,1.173-4.527c0-2.081-0.414-3.561-1.242-4.445
			c-0.825-0.881-2.102-1.322-3.832-1.322h-1.895V368.388z"/>
		<path fill="#FFFFFF" d="M485.738,390.761l-7.749-34.69h-0.305c0.353,2.675,0.528,5.127,0.528,7.356v27.334h-7.022v-40.738h11.65
			l6.963,32.017h0.223l6.91-32.017h11.814v40.738h-7.186v-27.612c0-2.285,0.127-4.625,0.387-7.022h-0.223l-7.717,34.634H485.738z"/>
	</g>
	<path fill="#FFFFFF" d="M345.134,307.373c-3.744-3.974-5.629-9.568-5.629-16.773c0-6.927,0.916-13.668,2.763-20.22
		c1.832-6.549,4.338-12.373,7.498-17.452c3.166-5.074,6.929-9.123,11.27-12.143c4.332-3.009,9.015-4.531,14.027-4.531
		c6.027,0,10.885,2.025,14.563,6.083c3.684,4.039,5.531,9.383,5.531,16.005c0,6.632-0.918,13.216-2.768,19.759
		c-1.828,6.566-4.337,12.464-7.492,17.684c-3.182,5.231-6.933,9.472-11.267,12.694c-4.357,3.253-8.954,4.863-13.808,4.863
		C353.775,313.341,348.882,311.349,345.134,307.373 M345.69,224.33c-7.36,4.133-13.701,9.575-18.991,16.349
		c-5.3,6.777-9.397,14.544-12.265,23.296c-2.866,8.772-4.307,17.775-4.307,27.06c0,5.887,0.883,11.296,2.65,16.241
		c1.762,4.917,4.301,9.189,7.618,12.802c3.317,3.606,7.288,6.411,11.92,8.39c4.651,1.99,9.837,2.979,15.588,2.979
		c7.36,0,14.046-1.763,20.094-5.292c6.033-3.538,11.268-8.102,15.67-13.694c0,12.657,7.81,18.986,23.411,18.986
		c3.386,0,6.518-0.295,9.384-0.885c2.885-0.586,5.789-1.243,8.722-1.981l4.423-16.347c-1.623,0.602-3.016,1-4.197,1.222
		c-1.178,0.204-2.502,0.33-3.971,0.33c-4.563,0-6.843-2.344-6.843-7.062c0-2.36,0.586-5.639,1.762-9.835
		c1.177-4.208,2.504-9.025,3.976-14.462l16.793-63.619c-2.213,0.742-4.869,1.29-7.964,1.653c-3.078,0.384-6.618,0.552-10.591,0.552
		h-11.044l-5.752,20.768c-1.9-7.514-5.582-13.319-11.04-17.452c-5.442-4.103-12.354-6.182-20.751-6.182
		C361.154,218.148,353.053,220.228,345.69,224.33 M600.681,311.241c-2.504-1.244-4.634-2.857-6.409-4.856
		c-1.756-1.981-3.093-4.316-3.965-6.955c-0.89-2.648-1.326-5.374-1.326-8.172c0-6.613,0.851-13.223,2.548-19.772
		c1.695-6.55,4.074-12.436,7.17-17.672c3.091-5.222,6.74-9.453,10.932-12.703c4.202-3.227,8.797-4.856,13.807-4.856
		c6.034,0,10.885,1.99,14.572,5.966c3.672,3.971,5.6,9.57,5.754,16.789c0,6.917-0.886,13.654-2.662,20.201
		c-1.763,6.568-4.234,12.34-7.396,17.346c-3.161,5.014-6.847,9.022-11.044,12.027c-4.197,3.023-8.656,4.526-13.358,4.526
		C606.051,313.11,603.187,312.487,600.681,311.241 M616.702,222.799c-5.531,3.077-10.418,7.132-14.691,12.146l4.41-16.136
		c-2.646,0.602-6.322,1.101-11.041,1.55c-4.7,0.433-9.783,0.656-15.24,0.656h-19.866l-4.428,16.574h12.6
		c1.324,0,2.172,0.482,2.537,1.435c0.364,0.965,0.194,2.693-0.553,5.182l-27.388,100.059c-0.744,2.499-1.506,4.082-2.315,4.753
		c-0.817,0.656-1.809,0.986-2.99,0.986h-9.711l-4.425,16.571h58.325l4.402-16.571h-11.27c-1.178,0-2.018-0.33-2.536-0.986
		c-0.516-0.672-0.411-2.255,0.338-4.753l9.709-36.231c1.927,7.085,5.671,12.75,11.269,17.014c5.598,4.271,12.81,6.399,21.647,6.399
		c8.972,0,17.047-1.995,24.174-5.959c7.141-3.985,13.222-9.28,18.227-15.902c4.998-6.636,8.829-14.232,11.482-22.859
		c2.654-8.626,3.975-17.625,3.975-27.057c0-5.896-0.853-11.371-2.55-16.452c-1.683-5.077-4.175-9.502-7.492-13.251
		c-3.311-3.747-7.36-6.669-12.149-8.727c-4.787-2.053-10.2-3.091-16.24-3.091C628.307,218.148,622.208,219.696,616.702,222.799
		 M505.979,223.232c-5.368,3.831-9.967,9.05-13.8,15.689l5.521-20.112c-2.651,0.602-6.336,1.101-11.037,1.55
		c-4.717,0.433-9.801,0.656-15.237,0.656h-20.544l-4.427,16.574h13.248c1.334,0,2.186,0.482,2.554,1.435
		c0.356,0.965,0.187,2.693-0.56,5.182l-23.183,84.375h29.591l9.507-35.346c2.482-9.418,4.993-17.74,7.49-24.947
		c2.516-7.221,5.203-13.251,8.07-18.108c2.873-4.866,6.033-8.544,9.489-11.05c3.474-2.494,7.411-3.758,11.817-3.758
		c1.632,0,3.167,0.3,4.657,0.883c1.467,0.588,2.572,1.405,3.292,2.438c-3.813,0.588-6.942,2.349-9.376,5.306
		c-2.426,2.939-3.584,6.1-3.428,9.488c0.137,3.833,1.55,6.997,4.204,9.502c2.646,2.501,6.322,3.749,11.035,3.749
		c3.236,0,6.226-0.78,8.958-2.321c2.715-1.534,5.075-3.606,7.063-6.186c1.989-2.569,3.494-5.54,4.528-8.943
		c1.019-3.388,1.467-6.985,1.315-10.818c-0.296-6.186-2.42-11.23-6.398-15.138c-3.97-3.887-9.426-5.84-16.341-5.84
		C517.354,217.49,511.346,219.411,505.979,223.232 M235.746,181.264c-4.786,0.44-9.899,0.67-15.361,0.67h-19.21l-4.629,16.551
		h11.489c1.466,0,2.345,0.482,2.64,1.452c0.295,0.956,0.071,2.681-0.653,5.187L176.656,328.58h29.393
		c4.105-16.347,8.19-30.291,12.248-41.854c4.042-11.563,8.136-21.009,12.254-28.385c4.128-7.366,8.329-12.722,12.594-16.122
		c4.265-3.391,8.686-5.086,13.252-5.086c3.385,0,6.257,1.007,8.602,2.99c2.369,1.99,3.548,4.891,3.548,8.727
		c0,1.759-0.452,4.306-1.335,7.62c-0.882,3.32-1.951,6.945-3.197,10.935c-1.255,3.978-2.627,8.158-4.092,12.577
		c-1.466,4.43-2.837,8.704-4.078,12.825c-1.265,4.114-2.314,7.907-3.2,11.368c-0.898,3.468-1.328,6.224-1.328,8.284
		c0,6.765,1.982,11.614,5.963,14.579c3.968,2.936,9.571,4.407,16.773,4.407c3.248,0,6.476-0.213,9.73-0.66
		c3.235-0.445,6.32-1.173,9.279-2.206l4.401-16.347c-2.933,1.035-5.663,1.553-8.171,1.553c-4.403,0-6.615-2.147-6.615-6.414
		c0-2.051,0.916-5.887,2.763-11.49c1.832-5.58,3.852-11.729,6.066-18.435c2.209-6.704,4.234-13.286,6.084-19.763
		c1.829-6.486,2.763-11.56,2.763-15.246c0-7.94-2.763-13.975-8.294-18.107c-5.518-4.103-12.252-6.182-20.202-6.182
		c-9.138,0-17.22,2.283-24.288,6.84c-7.073,4.582-13.41,11.2-19.007,19.892l18.109-65.157
		C244.159,180.311,240.536,180.826,235.746,181.264"/>
</g>
</svg>
