<?xml version="1.0" encoding="utf-8"?>
<!-- Generator: Adobe Illustrator 17.0.2, SVG Export Plug-In . SVG Version: 6.00 Build 0)  -->
<!DOCTYPE svg PUBLIC "-//W3C//DTD SVG 1.1//EN" "http://www.w3.org/Graphics/SVG/1.1/DTD/svg11.dtd">
<svg version="1.1" id="Layer_1" xmlns="http://www.w3.org/2000/svg" xmlns:xlink="http://www.w3.org/1999/xlink" x="0px" y="0px"
	 width="850px" height="567px" viewBox="0 0 850 567" enable-background="new 0 0 850 567" xml:space="preserve">
<g id="wordmark">
	<path id="h" fill="#3B3B3B" d="M228.416,254.701c11.012-17.182,25.109-26.651,43.169-26.651c15.854,0,28.427,8.376,28.427,24.23
		c0,14.76-17.63,56.62-17.63,64.763c0,4.627,2.421,6.385,6.6,6.385c2.87,0,5.076-0.43,8.16-1.542l-4.412,16.303
		c-5.936,1.991-12.554,2.87-18.939,2.87c-14.312,0-22.688-5.506-22.688-18.957c0-12.554,17.182-52.639,17.182-63.436
		c0-7.694-5.291-11.658-12.106-11.658c-18.078,0-33.718,25.988-50.236,91.181h-29.288l33.251-123.123
		c1.327-5.076,0.897-6.618-1.973-6.618h-11.46l4.627-16.518h19.172c10.779,0,21.145-1.094,26.203-2.206L228.416,254.701z"/>
	<path id="a" fill="#3B3B3B" d="M310.76,300.74c0-37,24.23-72.69,59.687-72.69c16.518,0,27.978,8.824,31.727,23.566l5.721-20.697
		h11.012c7.927,0,14.097-0.879,18.509-2.206l-16.751,63.436c-2.852,10.797-5.721,19.603-5.721,24.23
		c0,5.076,2.636,7.048,6.833,7.048c2.852,0,4.842-0.43,8.142-1.542l-4.412,16.303c-5.936,1.542-11.442,2.87-18.06,2.87
		c-15.191,0-23.333-6.618-23.333-18.957c-8.824,11.245-21.145,18.957-35.69,18.957C325.521,341.057,310.76,324.091,310.76,300.74z
		 M395.556,268.152c0-13.218-8.142-22.042-20.033-22.042c-19.836,0-35.475,26.436-35.475,54.199
		c0,14.312,8.376,22.688,20.266,22.688C379.917,322.997,395.556,294.355,395.556,268.152z"/>
	<path id="r" fill="#3B3B3B" d="M495.085,248.764c7.712-13.003,18.491-21.36,31.709-21.36c13.666,0,22.257,8.591,22.688,20.912
		c0.448,15.209-8.806,28.194-21.809,28.194c-9.47,0-14.976-5.506-15.191-13.218c-0.215-6.815,5.058-13.648,12.77-14.742
		c-1.309-1.991-4.627-3.318-7.927-3.318c-17.845,0-26.651,20.266-36.784,57.714l-9.47,35.242H441.55l23.136-84.132
		c1.327-5.076,0.664-6.618-1.991-6.618h-13.2l4.394-16.518h20.482c10.797,0,20.93-1.094,26.221-2.206L495.085,248.764z"/>
	<path id="p" fill="#3B3B3B" d="M528.412,359.548h9.685c2.421,0,3.964-0.879,5.291-5.721l27.315-99.772
		c1.309-5.076,0.664-6.618-1.991-6.618h-12.554l4.412-16.518h19.818c10.797,0,20.93-1.094,26.203-2.206l-4.394,16.088
		c8.376-9.918,19.603-16.751,32.821-16.751c24.23,0,38.327,17.63,38.327,41.412c0,37.448-22.024,71.596-57.714,71.596
		c-17.612,0-29.072-9.254-32.821-23.351l-9.685,36.121c-1.327,4.842-0.233,5.721,2.206,5.721h11.227l-4.412,16.518H524
		L528.412,359.548z M643.823,268.798c-0.215-14.312-8.376-22.688-20.266-22.688c-19.818,0-34.578,28.642-34.363,54.845
		c0,11.245,7.497,21.809,20.266,21.809C628.184,322.764,644.038,296.561,643.823,268.798z"/>
</g>
</svg>
