<?xml version="1.0" encoding="utf-8"?>
<!-- Generator: Adobe Illustrator 17.1.0, SVG Export Plug-In . SVG Version: 6.00 Build 0)  -->
<!DOCTYPE svg PUBLIC "-//W3C//DTD SVG 1.1//EN" "http://www.w3.org/Graphics/SVG/1.1/DTD/svg11.dtd" [
	<!ENTITY st0 "fill:#FFFFFF;">
]>
<svg version="1.1" id="Layer_1" xmlns="http://www.w3.org/2000/svg" xmlns:xlink="http://www.w3.org/1999/xlink" x="0px" y="0px"
	 viewBox="0 0 16 16" style="enable-background:new 0 0 16 16;" xml:space="preserve">
<g>
	<path style="&st0;" d="M11.7,5.5c0,3.2-2.3,3.9-3.8,4.4C6.5,10.3,6,10.6,6,11.4v0.2c0.5,0.3,0.9,0.8,0.9,1.5c0,0.9-0.8,1.7-1.7,1.7
		s-1.7-0.8-1.7-1.7c0-0.6,0.3-1.2,0.9-1.5V4.3C3.8,4,3.4,3.5,3.4,2.9c0-0.9,0.8-1.7,1.7-1.7s1.7,0.8,1.7,1.7C6.9,3.5,6.5,4,6,4.3
		v4.4c0.5-0.2,0.9-0.4,1.4-0.5C9,7.7,10,7.3,10,5.5C9.5,5.2,9.1,4.6,9.1,4c0-0.9,0.8-1.7,1.7-1.7s1.7,0.8,1.7,1.7
		C12.6,4.6,12.2,5.2,11.7,5.5z M5.1,2C4.7,2,4.3,2.4,4.3,2.9s0.4,0.9,0.9,0.9S6,3.3,6,2.9S5.6,2,5.1,2z M5.1,12.3
		c-0.5,0-0.9,0.4-0.9,0.9S4.7,14,5.1,14S6,13.6,6,13.1S5.6,12.3,5.1,12.3z M10.9,3.1C10.4,3.1,10,3.5,10,4s0.4,0.9,0.9,0.9
		s0.9-0.4,0.9-0.9S11.3,3.1,10.9,3.1z"/>
</g>
</svg>
