<?xml version="1.0" encoding="utf-8"?>
<!-- Generator: Adobe Illustrator 17.1.0, SVG Export Plug-In . SVG Version: 6.00 Build 0)  -->
<!DOCTYPE svg PUBLIC "-//W3C//DTD SVG 1.1//EN" "http://www.w3.org/Graphics/SVG/1.1/DTD/svg11.dtd" [
	<!ENTITY st0 "fill:#FFFFFF;">
]>
<svg version="1.1" id="Layer_1" xmlns="http://www.w3.org/2000/svg" xmlns:xlink="http://www.w3.org/1999/xlink" x="0px" y="0px"
	 viewBox="0 0 16 16" style="enable-background:new 0 0 16 16;" xml:space="preserve">
<path style="&st0;" d="M15.2,6.6L12,9.8l0.8,4.5c0,0.1,0,0.1,0,0.2c0,0.2-0.1,0.4-0.4,0.4c-0.1,0-0.2,0-0.4-0.1l-4-2.1l-4,2.1
	c-0.1,0.1-0.2,0.1-0.4,0.1c-0.3,0-0.4-0.2-0.4-0.4c0-0.1,0-0.1,0-0.2L4,9.8L0.8,6.6C0.7,6.5,0.6,6.4,0.6,6.2c0-0.3,0.3-0.4,0.5-0.4
	l4.5-0.7l2-4.1C7.6,0.9,7.8,0.7,8,0.7c0.2,0,0.4,0.2,0.4,0.4l2,4.1l4.5,0.7c0.2,0,0.5,0.1,0.5,0.4C15.4,6.4,15.3,6.5,15.2,6.6z"/>
</svg>
