<?xml version="1.0" encoding="utf-8"?>
<!-- Generator: Adobe Illustrator 17.1.0, SVG Export Plug-In . SVG Version: 6.00 Build 0)  -->
<!DOCTYPE svg PUBLIC "-//W3C//DTD SVG 1.1//EN" "http://www.w3.org/Graphics/SVG/1.1/DTD/svg11.dtd">
<svg version="1.1" id="Layer_1" xmlns="http://www.w3.org/2000/svg" xmlns:xlink="http://www.w3.org/1999/xlink" x="0px" y="0px"
	 viewBox="0 0 720 360" enable-background="new 0 0 720 360" xml:space="preserve">
<g>
	<g>
		<path fill="#FFFFFF" d="M263.4,233.3c-1.1-0.5-2-1.1-2.9-1.9l0,0C261.4,232.1,262.3,232.8,263.4,233.3z M275.4,232.6
			c1.4-1.2,2.2-2.8,2.2-4.8c0-4.5-4.6-5.6-8.6-6.6c-5.2-1.3-8.3-2.4-8.3-6.2c0-1.5,0.5-2.7,1.5-3.7c-0.8,1-1.3,2.2-1.3,3.6
			c0,4,4.1,5.1,8.1,6.1c5.3,1.3,8.8,2.5,8.8,6.9C277.7,229.8,276.9,231.5,275.4,232.6z"/>
		<path d="M268.9,207.6c-6,0-9.5,3.3-9.5,7.4c0,9.6,16.9,5.5,16.9,12.8c0,3.1-2.7,5.4-7.2,5.4c-3.8,0-6.9-1.8-8.6-3.9l-1.7,2.2
			c2.7,2.9,6,4.2,10.3,4.2c6.7,0,10-3.5,10-7.9c0-10.3-16.9-6.2-16.9-12.9c0-2.8,2.6-4.9,6.7-4.9c3.5,0,6.4,1.4,8,3.5l1.6-2.1
			C276.5,209.4,273.5,207.6,268.9,207.6L268.9,207.6z"/>
	</g>
	<g>
		<path fill="#FFFFFF" d="M294.2,233.6c-4.5-1.7-7.4-6.2-7.4-12c0-5.9,2.9-10.3,7.4-12c-4.6,1.9-7,7-7,12
			C287.3,226.6,289.6,231.7,294.2,233.6z M302.5,233.6c4.6-1.9,7-7,7-12c0-5-2.4-10.1-7-12c4.5,1.7,7.5,6.1,7.5,12
			C309.9,227.5,307,232,302.5,233.6z"/>
		<path d="M298.4,207.6c-7.8,0-12.9,6.2-12.9,14c0,7.8,5,14.1,12.9,14.1c7.9,0,12.9-6.3,12.9-14.1
			C311.3,213.8,306.3,207.6,298.4,207.6L298.4,207.6z M298.4,233.1c-6.2,0-9.8-5.5-9.8-11.5c0-5.9,3.5-11.4,9.8-11.4
			c6.3,0,9.8,5.5,9.8,11.4C308.2,227.6,304.7,233.1,298.4,233.1L298.4,233.1z"/>
	</g>
	<g>
		<path fill="#FFFFFF" d="M321.5,233.7v-27.9c0-3.1,1.1-5.3,3-6.3c-1.8,1.1-2.8,3.3-2.8,6.3v27.9H321.5z"/>
		<path d="M327.5,197.5c-4.5,0-7.3,3.1-7.3,8.3v2.4h-4.4v2.6h4.4V235h2.9v-24.2h5.4v-2.6h-5.4v-2.4c0-3.7,1.6-5.8,4.7-5.8
			c1.4,0,2.5,0.6,3.4,1.4l1.4-2C330.8,197.9,329.3,197.5,327.5,197.5L327.5,197.5z"/>
	</g>
	<g>
		<path fill="#FFFFFF" d="M344.3,234.3c-1.6-0.1-3.5-0.8-3.5-4.5v-27.6h0.3v27.2C341.1,232.1,342.3,233.9,344.3,234.3z"/>
		<path d="M342.4,200.9h-2.9v7.3h-4.4v2.6h4.4v19.1c0,3.7,1.7,5.8,5.3,5.8c2.2,0,3.5-0.7,4.5-1.7l-1.1-2.2c-0.6,0.7-1.7,1.3-3,1.3
			c-1.9,0-2.8-1.5-2.8-3.7v-18.6h5.4v-2.6h-5.4V200.9L342.4,200.9z"/>
	</g>
	<g>
		<path fill="#FFFFFF" d="M355.8,209.6h0.3l6.8,21.6L355.8,209.6z M389.8,209.6h0.3l-7,21.6L389.8,209.6z"/>
		<polygon points="391.9,208.2 388.8,208.2 381.7,231 374.2,208.2 371.7,208.2 364.2,231 357.1,208.2 354,208.2 362.7,235 
			365.4,235 373,212.1 380.5,235 383.2,235 391.9,208.2 		"/>
	</g>
	<g>
		<path fill="#FFFFFF" d="M416.3,233.7v-17.4c0-3.6-2.2-6.2-5.7-7.1c2.8,0.5,5.9,2.2,5.9,7v17.5H416.3z M401.5,233.2
			c-2.1-1.2-3.7-3.4-3.7-6.4c0-3.1,1.6-5.3,3.8-6.5c-2.1,1.4-3.4,3.7-3.4,6.5C398.2,229.5,399.4,231.8,401.5,233.2z"/>
		<path d="M408.1,207.6c-4.4,0-7.5,1.5-10.3,4.5l1.6,2c2.4-2.8,5-3.9,8.4-3.9c4,0,7.2,2.2,7.2,6.2v5.4c-2.3-2.6-5.4-3.8-9.1-3.8
			c-4.7,0-9.4,3-9.4,8.9c0,5.8,4.8,8.9,9.4,8.9c3.7,0,6.7-1.2,9.1-3.8v3.2h2.9v-18.8C417.8,210.2,413.5,207.6,408.1,207.6
			L408.1,207.6z M406.8,233.4c-4.4,0-7.3-2.8-7.3-6.6c0-3.8,2.9-6.7,7.3-6.7c3.2,0,6.2,1.3,8.1,3.7v5.9
			C413.1,232.2,410.1,233.4,406.8,233.4L406.8,233.4z"/>
	</g>
	<g>
		<path fill="#FFFFFF" d="M429.8,233.7v-24.1h0.2v24.1H429.8z M437.5,209.6c0.5-0.2,1-0.3,1.5-0.4v0.3c0,0-0.1,0-0.1,0
			C438.5,209.4,438,209.5,437.5,209.6z"/>
		<path d="M440.4,207.7c-3.7,0-6.8,2.2-9,5.2v-4.6h-2.9V235h2.9v-19.5c1.2-2.3,4.9-4.8,7.6-4.8c0.6,0,0.9,0,1.4,0.1V207.7
			L440.4,207.7z"/>
	</g>
	<g>
		<path fill="#FFFFFF" d="M453.8,233.3c-4.2-1.9-6.9-6.2-6.9-11.7c0-3.3,1.1-6.3,2.9-8.5c-1.5,2-2.3,4.6-2.4,7.1l0,1h0l0,0.2l0,0.2
			h0l0,1C447.7,227.5,450.1,231.4,453.8,233.3z M469.6,221.2l0-1c0-1.1-0.1-2.1-0.4-3.1c0.4,1.3,0.6,2.6,0.6,4H469.6z"/>
		<path d="M458.5,207.6c-7.4,0-12.9,6.3-12.9,14c0,8.3,5.6,14.1,13.4,14.1c4.4,0,7.8-1.6,10.5-4.3l-1.5-1.9
			c-2.3,2.4-5.4,3.7-8.8,3.7c-6.3,0-10.2-4.8-10.5-10.6h22.4v-0.8C471.2,214.1,466.7,207.6,458.5,207.6L458.5,207.6z M448.8,220.3
			c0.2-4.7,3.4-10.2,9.7-10.2c6.7,0,9.7,5.7,9.8,10.2H448.8L448.8,220.3z"/>
	</g>
	<g>
		<path fill="#FFFFFF" d="M273.8,182.1c-6.2,0-11.7-1.8-15.5-5.1l2.6-4c3.1,2.5,8.2,4.9,13.4,4.9c6.8,0,9.3-3.5,9.3-6.8
			c0-4.4-5-5.5-10.2-6.6c-6.9-1.5-14.1-3.1-14.1-11c0-6.4,6-10.9,14.5-10.9c5.3,0,10.1,1.6,13.9,4.6l-2.2,3.7c-2.9-2.5-7.2-4-11.6-4
			c-5.2,0-8.8,2.6-8.8,6.3c0,3.9,4.7,5,9.6,6.1c6.9,1.5,14.7,3.2,14.7,11.8C289.2,177.8,283.2,182.1,273.8,182.1z"/>
		<path d="M273.6,143.9c4.7,0,8.8,1.2,12.2,3.6l-0.8,1.4c-3.1-2.1-7.1-3.4-11.3-3.4c-6,0-10.2,3.1-10.2,7.6c0,5,5.4,6.2,10.7,7.4
			c8.2,1.8,13.6,3.5,13.6,10.5c0,6.1-5.4,9.8-14.1,9.8c-5.3,0-10.2-1.5-13.8-4.1l1.1-1.8c3.3,2.3,8.1,4.3,13,4.3
			c4.9,0,10.6-2.1,10.6-8.1c0-5.5-6-6.8-11.3-7.9c-7.9-1.7-13.1-3.4-13.1-9.7C260.5,147.7,265.8,143.9,273.6,143.9 M273.6,141.2
			c-10.2,0-15.8,5.7-15.8,12.3c0,15.4,24.3,9.8,24.3,17.7c0,3.2-2.7,5.4-7.9,5.4c-5.3,0-10.8-2.8-13.7-5.7l-4,6.3
			c4.2,4.1,10.4,6.3,17.3,6.3c10.8,0,16.8-5.4,16.8-12.5c0-16-24.3-10.7-24.3-17.8c0-2.8,2.9-4.9,7.5-4.9c5,0,9.5,2.1,11.9,4.8
			l3.7-6.2C285.6,143.6,280.5,141.2,273.6,141.2L273.6,141.2z"/>
	</g>
	<g>
		<path fill="#FFFFFF" d="M311.5,182.1c-6,0-9-3-9-9v-24.6h-6.7v-5h6.7v-11h6.1v11h8.2v5h-8.2V171c0,3.6,2.1,6.1,5.2,6.1
			c1.1,0,2.2-0.2,3.2-0.7l1.3,4C316.6,181.6,314.4,182.1,311.5,182.1z"/>
		<path d="M307.2,133.9v8.3v2.7h2.7h5.5v2.3h-5.5h-2.7v2.7V171c0,4.4,2.6,7.4,6.5,7.4c0.8,0,1.6-0.1,2.3-0.3l0.5,1.7
			c-1.3,0.6-3,1-5.1,1c-5.2,0-7.7-2.4-7.7-7.7v-23.3v-2.7h-2.7h-4v-2.3h4h2.7v-2.7v-8.3H307.2 M309.9,131.2h-8.8v11h-6.7v7.7h6.7
			v23.3c0,6.7,3.6,10.3,10.3,10.3c4.1,0,6.7-1.1,8.3-2.6l-2.1-6.6c-0.7,0.8-2.3,1.4-3.9,1.4c-2.5,0-3.8-2-3.8-4.8v-21.1h8.2v-7.7
			h-8.2V131.2L309.9,131.2z"/>
	</g>
	<g>
		<path fill="#FFFFFF" d="M344.6,182.1c-11.6,0-19.7-8.2-19.7-19.8c0-11.3,8.2-19.7,19.1-19.7c11.1,0,18.5,8.3,18.5,20.6v0.7h-31.2
			l0.2,1.5c0.8,7.3,6.5,12.3,14.2,12.3c4,0,8.2-1.4,11.2-3.8l2.5,3.5C355.5,180.5,350.4,182.1,344.6,182.1z M343.9,147
			c-8.1,0-12.2,6-12.7,11.9l-0.1,1.5h25.5l0-1.4C356.4,153.2,352.3,147,343.9,147z"/>
		<path d="M343.9,143.9c10.1,0,16.9,7.5,17.2,18.7h-28.4h-3l0.3,3c0.9,8.1,7.1,13.5,15.5,13.5c3.8,0,7.8-1.2,10.9-3.2l1,1.4
			c-3.3,2.4-7.8,3.6-12.7,3.6c-10.8,0-18.4-7.6-18.4-18.5C326.2,151.8,333.8,143.9,343.9,143.9 M329.7,161.7h2.9h22.7h2.8l-0.1-2.8
			c-0.2-6.4-4.7-13.3-14-13.3c-8.9,0-13.5,6.8-14,13.1L329.7,161.7 M343.9,141.2c-11.9,0-20.4,9.4-20.4,21.1
			c0,12.8,9,21.2,21.1,21.2c6.4,0,12.3-2,16.3-5.8l-4-5.8c-2.8,2.8-7.5,4.4-11.4,4.4c-7.6,0-12.2-5-12.8-11.1h31.1v-2.1
			C363.7,150.5,356,141.2,343.9,141.2L343.9,141.2z M332.6,159.1c0.4-4.9,3.8-10.7,11.3-10.7c7.9,0,11.2,5.9,11.3,10.7H332.6
			L332.6,159.1z"/>
	</g>
	<g>
		<path fill="#FFFFFF" d="M383.2,182.1c-8.3,0-12.7-6-12.7-12c0-8.1,6.4-11.7,12.7-11.7c5.1,0,9.4,1.7,12,4.7l2.4,2.8v-9.6
			c0-5.3-4.3-8.8-10.8-8.8c-4.3,0-8.2,1.4-11.6,4.3L373,148c4.2-3.6,9.3-5.4,15.2-5.4c12.7,0,15.4,7.2,15.4,13.2v25.3h-6.1v-6.5
			l-2.3,2.7C392.4,180.4,388.1,182.1,383.2,182.1z M386.6,161.7c-5.8,0-9.9,3.5-9.9,8.6c0,5,4.1,8.5,9.9,8.5c4.5,0,8.5-1.8,10.7-4.7
			l0.3-0.4v-7l-0.3-0.4C395.1,163.5,391.1,161.7,386.6,161.7z"/>
		<path d="M388.2,143.9c9.3,0,14.1,4,14.1,11.9v24h-3.4v-1.7v-4v-0.9v-6.1v-0.9v-4.1v-6c0-6.1-4.9-10.2-12.1-10.2
			c-4.1,0-7.9,1.2-11.2,3.7l-0.8-1.4C378.4,145.4,383,143.9,388.2,143.9 M383.2,159.7c2,0,3.8,0.3,5.4,0.8c-0.7-0.1-1.3-0.1-2-0.1
			c-6.5,0-11.3,4.2-11.3,9.9c0,5.7,4.7,9.8,11.3,9.8c0.6,0,1.1,0,1.7-0.1c-1.6,0.5-3.3,0.7-5.1,0.7c-4.6,0-11.3-2.8-11.3-10.7
			c0-3.4,1.2-6.1,3.5-7.9C377.4,160.6,380.2,159.7,383.2,159.7 M388.2,141.2c-6.4,0-12.3,2.1-16.9,6.5l3.6,6.1
			c3.5-3.4,7.4-5.1,11.9-5.1c5.6,0,9.4,2.8,9.4,7.5v6c-2.9-3.4-7.6-5.2-13-5.2c-6.6,0-14,3.8-14,13.1c0,8.9,7.4,13.3,14,13.3
			c5.3,0,10-1.9,13-5.3v4.3h8.8v-26.7C404.9,145,397.1,141.2,388.2,141.2L388.2,141.2z M386.6,177.5c-4.9,0-8.6-2.8-8.6-7.2
			c0-4.4,3.7-7.3,8.6-7.3c3.8,0,7.6,1.4,9.6,4.2v6.1C394.2,176.1,390.4,177.5,386.6,177.5L386.6,177.5z"/>
	</g>
	<g>
		<path fill="#FFFFFF" d="M465.3,181.1v-24.9c0-5.5-2.9-8.6-7.9-8.6c-4.4,0-8.5,3.1-10.4,5.9l-0.2,0.3v27.2h-6.1v-24.9
			c0-5.5-2.9-8.6-8-8.6c-4.3,0-8.3,3-10.4,6L422,154v27.2h-6.1v-37.6h6.1v8.6l2.5-3.7c1.4-2.1,6.3-5.9,12-5.9c5,0,8.5,2.3,9.7,6.5
			l0.8,2.8l1.6-2.5c2.2-3.4,7.1-6.8,12.5-6.8c6.9,0,10.2,3.5,10.2,10.8v27.8H465.3z"/>
		<path d="M461.1,143.9c6.1,0,8.9,3,8.9,9.5v26.4h-3.4v-23.6c0-6.2-3.5-9.9-9.3-9.9c-2,0-3.9,0.5-5.6,1.4
			C454.1,145.6,457.5,143.9,461.1,143.9 M436.4,143.9c4.4,0,7.4,1.9,8.4,5.5l1,3.3c0,0,0,0.1-0.1,0.1l-0.5,0.7v0.8v25.5h-3.4v-23.6
			c0-6.2-3.5-9.9-9.3-9.9c-2.1,0-4,0.6-5.7,1.5C428.9,146,432.5,143.9,436.4,143.9 M420.7,144.9v2.8v8.8v23.2h-3.4v-34.9H420.7
			 M461.1,141.2c-6,0-11.3,3.8-13.7,7.4c-1.3-4.4-5-7.4-11-7.4c-6.1,0-11.4,4-13.1,6.5v-5.5h-8.8v40.3h8.8v-28.1
			c1.8-2.7,5.4-5.4,9.3-5.4c4.8,0,6.7,2.9,6.7,7.3v26.3h8.8v-28.2c1.8-2.6,5.4-5.3,9.3-5.3c4.7,0,6.6,2.9,6.6,7.3v26.3h8.8v-29.1
			C472.7,145.2,468.5,141.2,461.1,141.2L461.1,141.2z"/>
	</g>
	<g>
		<path fill="#FFFFFF" d="M499.9,182.1c-11.5,0-19.5-8.2-19.5-19.8c0-11.6,8-19.7,19.5-19.7c5.8,0,10.4,1.9,13.6,5.7l-3.8,3.5
			c-2.4-2.7-5.6-4.1-9.4-4.1c-8,0-13.5,6-13.5,14.7c0,8.7,5.6,14.8,13.5,14.8c3.8,0,6.9-1.4,9.4-4.1l3.8,3.5
			C510.2,180.2,505.7,182.1,499.9,182.1z"/>
		<path d="M499.9,143.9c4.9,0,8.8,1.4,11.7,4.3l-1.8,1.7c-2.5-2.4-5.7-3.6-9.5-3.6c-8.7,0-14.8,6.6-14.8,16
			c0,9.5,6.1,16.1,14.8,16.1c3.7,0,6.9-1.2,9.4-3.6l1.9,1.7c-2.9,2.8-6.8,4.3-11.7,4.3c-10.7,0-18.2-7.6-18.2-18.5
			C481.7,151.5,489.2,143.9,499.9,143.9 M499.9,141.2c-12.3,0-20.8,8.9-20.8,21.1c0,12.3,8.6,21.2,20.8,21.2
			c7.8,0,12.6-3.3,15.4-7.2l-5.8-5.3c-2.2,3.1-5.3,4.8-9.3,4.8c-7.3,0-12.2-5.6-12.2-13.4c0-7.8,4.8-13.3,12.2-13.3
			c3.9,0,7,1.6,9.3,4.8l5.8-5.3C512.4,144.6,507.7,141.2,499.9,141.2L499.9,141.2z"/>
	</g>
	<g>
		<rect x="521.8" y="128.2" fill="#FFFFFF" width="6.1" height="52.9"/>
		<path d="M526.5,129.6v50.2h-3.4v-50.2H526.5 M529.2,126.9h-8.8v55.6h8.8V126.9L529.2,126.9z"/>
	</g>
	<g>
		<path fill="#FFFFFF" d="M557,182.1c-11.4,0-19.3-8.2-19.3-19.8c0-11.4,8.1-19.7,19.3-19.7c11.4,0,19.4,8.1,19.4,19.7
			C576.5,174,568.5,182.1,557,182.1z M557,147.6c-8.5,0-12.9,7.4-12.9,14.7c0,8.7,5.3,14.8,12.9,14.8c7.7,0,13-6.1,13-14.8
			C570,153.7,564.7,147.6,557,147.6z"/>
		<path d="M557,143.9c10.6,0,18.1,7.6,18.1,18.4c0,10.9-7.4,18.5-18.1,18.5c-10.6,0-18-7.6-18-18.5C539,151.5,546.4,143.9,557,143.9
			 M557,178.4c8.3,0,14.3-6.8,14.3-16.1c0-9.3-6-16-14.3-16c-8.3,0-14.3,6.7-14.3,16C542.8,171.6,548.8,178.4,557,178.4 M557,141.2
			c-12.8,0-20.7,9.6-20.7,21.1c0,11.6,7.9,21.2,20.7,21.2c12.9,0,20.8-9.6,20.8-21.2C577.8,150.8,570,141.2,557,141.2L557,141.2z
			 M557,175.7c-7.4,0-11.6-6.3-11.6-13.4c0-7.1,4.2-13.3,11.6-13.3c7.5,0,11.7,6.3,11.7,13.3C568.7,169.5,564.5,175.7,557,175.7
			L557,175.7z"/>
	</g>
	<g>
		<path fill="#FFFFFF" d="M604.1,182.1c-11.5,0-19.5-8.2-19.5-19.8c0-11.6,8-19.7,19.5-19.7c5.8,0,10.4,1.9,13.6,5.7l-3.8,3.5
			c-2.4-2.7-5.6-4.1-9.4-4.1c-8,0-13.5,6-13.5,14.7c0,8.7,5.6,14.8,13.5,14.8c3.8,0,6.9-1.4,9.4-4.1l3.8,3.5
			C614.5,180.2,609.9,182.1,604.1,182.1z"/>
		<path d="M604.1,143.9c4.9,0,8.8,1.4,11.7,4.3l-1.8,1.7c-2.5-2.4-5.7-3.6-9.5-3.6c-8.7,0-14.8,6.6-14.8,16
			c0,9.5,6.1,16.1,14.8,16.1c3.7,0,6.9-1.2,9.4-3.6l1.9,1.7c-2.9,2.8-6.8,4.3-11.7,4.3c-10.7,0-18.2-7.6-18.2-18.5
			C586,151.5,593.4,143.9,604.1,143.9 M604.1,141.2c-12.3,0-20.8,8.9-20.8,21.1c0,12.3,8.6,21.2,20.8,21.2c7.8,0,12.6-3.3,15.4-7.2
			l-5.8-5.3c-2.3,3.1-5.3,4.8-9.3,4.8c-7.3,0-12.2-5.6-12.2-13.4c0-7.8,4.8-13.3,12.2-13.3c3.9,0,7,1.6,9.3,4.8l5.8-5.3
			C616.7,144.6,612,141.2,604.1,141.2L604.1,141.2z"/>
	</g>
	<g>
		<polygon fill="#FFFFFF" points="652.9,181.1 640,163.8 633,171.1 633,181.1 626.9,181.1 626.9,128.2 633,128.2 633,165.1 
			652.7,143.6 659.9,143.6 644.4,160.4 660.5,181.1 		"/>
		<path d="M631.6,129.6v32.1v6.9l4.7-5.1l17-18.6h3.6l-12.6,13.8l-1.5,1.7l1.4,1.8l13.7,17.7h-4.2L642,164.3l-1.9-2.5L638,164
			l-5.6,5.8l-0.8,0.8v1.1v8.2h-3.4v-50.2H631.6 M634.3,126.9h-8.8v55.6h8.8v-10.8l5.6-5.8l12.3,16.6h11l-17.1-22l16.8-18.3h-10.8
			l-17.8,19.4V126.9L634.3,126.9z"/>
	</g>
	<g>
		<path fill="#FFFFFF" d="M153.8,261.7c-2.1,0-4-0.5-4.4-0.9c-0.2-0.4-0.8-2.9-1.1-4.6c-0.9-4.3-1.2-5.6-2.5-5.7l0,0l-0.2,0
			c-1.9,0-3.8-0.1-5.7-0.3l-1.3-0.1c-1.5-0.1-3.1-0.3-4.6-0.6l-0.2,0l-0.1,0c-1.3,0-1.7,1.1-3.5,5.2c-0.6,1.5-1.6,3.8-2,4.3
			c-0.1,0.1-0.6,0.3-1.6,0.3c-1.3,0-2.8-0.3-3.6-0.6c-1.9-0.6-4.2-2-4.5-2.8c-0.1-0.6,0.4-3.1,0.7-4.7c0.8-4.3,1.1-5.6-0.1-6.2l0,0
			l-0.2-0.1c-1.7-0.7-3.3-1.5-5.2-2.5l-0.1,0l-0.7-0.4c-1.5-0.8-3-1.6-4.4-2.5c-0.3-0.2-0.6-0.3-0.8-0.3c-0.9,0-1.6,0.6-4.6,3.6
			c-1.2,1.1-2.9,2.9-3.5,3.2c0,0-0.1,0-0.1,0c-1.1,0-3.3-1.2-4.7-2.3c-1.5-1.2-3.1-3.5-3.1-4.3c0.2-0.6,1.6-2.7,2.5-4.1
			c2.4-3.7,3.1-4.8,2.4-5.8l0,0l-0.2-0.2c-1.3-1.3-2.6-2.7-3.8-4.3l-0.7-0.9c-1-1.2-2-2.4-2.9-3.7l-0.1-0.1
			c-0.2-0.2-0.5-0.6-1.3-0.6c-0.8,0-2,0.5-4.9,1.6c-1.6,0.6-4,1.6-4.6,1.6c-0.7-0.1-2.5-2.1-3.5-3.9c-0.9-1.7-1.5-4.4-1.2-5.2
			c0.4-0.5,2.5-1.9,3.8-2.8c3.6-2.5,4.8-3.3,4.4-4.5l0,0l-0.1-0.2c-0.7-1.7-1.3-3.5-1.9-5.4l-0.2-0.8c-0.5-1.6-1-3.3-1.3-4.9l0-0.1
			l0-0.1c-0.3-1.3-1.5-1.4-6.2-1.4c-1.6,0-4.1,0-4.7-0.2c-0.7-0.5-1.5-3-1.7-5c-0.2-1.9,0.3-4.6,0.9-5.3c0.6-0.3,3-0.8,4.7-1.2
			c4.3-0.9,5.6-1.2,5.7-2.4l0,0l0-0.2c0-1.8,0.1-3.7,0.3-5.7l0-0.1l0.1-1.1c0.1-1.5,0.3-3.1,0.6-4.6c0.3-1.5-0.9-2-5.1-3.8
			c-1.6-0.7-3.9-1.7-4.3-2.1c-0.4-0.5-0.3-3.2,0.3-5.3c0.6-1.9,2-4.2,2.8-4.5c0,0,0.1,0,0.1,0c0.8,0,2.8,0.4,4.6,0.7
			c2,0.4,3.7,0.7,4.6,0.7c0.9,0,1.4-0.3,1.7-0.9c0.8-1.9,1.7-3.6,2.5-5.2l0.1-0.2l0.4-0.8c0.7-1.4,1.5-2.8,2.4-4.2l0-0.1l0-0.1
			c0.7-1.1-0.1-2-3.4-5.3c-1.1-1.2-2.9-2.9-3.2-3.5c-0.1-0.8,1-3.2,2.3-4.8c1.2-1.5,3.5-3.1,4.4-3.1c0.5,0.1,2.6,1.5,4,2.5
			c3.2,2.1,4.1,2.6,4.9,2.6c0.3,0,0.6-0.1,0.8-0.3l0.1-0.1l0.2-0.2c1.3-1.3,2.8-2.6,4.3-3.8l0.8-0.6c1.2-1,2.5-2.1,3.8-3
			c1.2-0.9,0.7-2.1-1-6.3c-0.6-1.5-1.5-3.8-1.6-4.5c0.2-0.8,2.1-2.6,3.9-3.5c1.1-0.6,3.2-1.3,4.6-1.3c0.4,0,0.5,0,0.6,0.1
			c0.5,0.4,1.9,2.5,2.8,3.8c2.4,3.6,3.1,4.4,4.1,4.4c0,0,0.2,0,0.2,0l0.3-0.1c1.9-0.7,3.7-1.4,5.5-1.9l0.1,0l1-0.3
			c1.5-0.4,3-0.9,4.5-1.2l0.2,0c1.4-0.3,1.4-1.6,1.4-6.1c0-1.7,0-4.1,0.2-4.8c0.5-0.7,3-1.6,5-1.8c0.2,0,0.6,0,0.9,0
			c2.1,0,3.9,0.5,4.4,0.9c0.3,0.6,0.8,3,1.1,4.6c0.9,4.5,1.2,5.7,2.6,5.8c2,0,4,0.1,5.8,0.3l0.1,0l1.1,0.1c1.5,0.1,3.1,0.3,4.6,0.6
			l0.2,0l0.2,0c1.3,0,1.7-1.1,3.5-5.2c0.6-1.5,1.6-3.8,2-4.3c0.1-0.1,0.6-0.3,1.6-0.3c1.3,0,2.8,0.3,3.7,0.6c1.9,0.6,4.2,2,4.5,2.8
			c0.1,0.6-0.4,3.1-0.7,4.7c-0.8,4.4-1.1,5.7,0.1,6.3l0.1,0.1c1.9,0.8,3.6,1.6,5.2,2.5l0.1,0.1l1.1,0.6c1.3,0.7,2.7,1.4,4,2.3
			l0.1,0.1c0.2,0.1,0.5,0.2,0.8,0.2c0.9,0,1.6-0.6,4.6-3.6c1.2-1.2,2.9-2.9,3.5-3.2c0,0,0.1,0,0.1,0c1.1,0,3.3,1.2,4.7,2.3
			c1.5,1.2,3.1,3.5,3.1,4.3c-0.2,0.6-1.6,2.7-2.5,4.1c-2.4,3.7-3.2,4.8-2.3,5.8l0.1,0.2c1.3,1.3,2.5,2.7,3.8,4.3l0.1,0.1l0.8,1
			c1,1.2,1.9,2.4,2.8,3.6c0.2,0.3,0.6,0.7,1.3,0.7c0.8,0,2.1-0.5,5-1.7c1.6-0.6,3.9-1.6,4.5-1.6c0.7,0.1,2.5,2.1,3.5,3.9
			c0.9,1.7,1.5,4.4,1.2,5.2c-0.4,0.5-2.5,1.9-3.8,2.8c-3.7,2.5-4.8,3.3-4.4,4.5l0,0l0.1,0.2c0.7,1.8,1.3,3.5,1.9,5.4l0,0.1l0.3,1
			c0.5,1.5,0.9,3,1.3,4.6l0,0.2c0.3,1.3,1.7,1.3,6.2,1.4c1.6,0,4.1,0,4.7,0.2c0.7,0.5,1.6,3,1.8,5c0.2,1.9-0.3,4.6-0.9,5.2
			c-0.6,0.3-3,0.8-4.6,1.1c-4.3,0.9-5.7,1.2-5.8,2.5l0,0.2c0,1.9-0.1,3.8-0.3,5.7l0,0.1l-0.1,1c-0.1,1.6-0.3,3.2-0.6,4.7l0,0.1
			c-0.2,1.4,0.9,1.8,5.2,3.7c1.5,0.6,3.8,1.6,4.3,2c0.4,0.7,0.3,3.3-0.3,5.3c-0.6,1.9-2.1,4.3-2.9,4.5c0,0,0,0,0,0
			c-0.8,0-2.9-0.4-4.6-0.7c-2-0.4-3.7-0.7-4.6-0.7c-1.1,0-1.5,0.5-1.7,0.9c-0.8,1.8-1.6,3.5-2.5,5.2l-0.5,1
			c-0.7,1.4-1.5,2.8-2.3,4.1l-0.1,0.1c-0.7,1.2,0.1,2.1,3.3,5.3c1.2,1.2,3,3,3.2,3.6c0.2,0.7-1,3.1-2.3,4.7
			c-1.2,1.5-3.4,3.1-4.3,3.1c-0.6-0.2-2.7-1.6-4.1-2.5c-3.2-2.1-4.1-2.6-4.9-2.6c-0.3,0-0.6,0.1-0.8,0.2l-0.1,0.1l-0.2,0.2
			c-1.4,1.4-2.8,2.6-4.3,3.8l-0.2,0.2l-0.6,0.5c-1.3,1-2.5,2.1-3.9,3l-0.1,0.1l-0.1,0.1l0,0c-1.1,0.8-0.5,2.1,1.1,6.2
			c0.6,1.5,1.5,3.8,1.6,4.5c-0.2,0.8-2.1,2.6-4,3.5c-1.2,0.6-3.2,1.3-4.6,1.3c-0.3,0-0.5,0-0.6-0.1c-0.5-0.4-1.9-2.5-2.8-3.8
			c-2.4-3.6-3.1-4.4-4.1-4.4h-0.3l-0.3,0.1c-1.7,0.7-3.5,1.3-5.4,1.9l-1.3,0.4c-1.4,0.4-2.9,0.9-4.4,1.2l-0.1,0l-0.1,0
			c-1.3,0.3-1.4,1.6-1.4,6.2c0,1.6,0,4.1-0.2,4.7c-0.5,0.7-3,1.6-5,1.8C154.4,261.7,154.1,261.7,153.8,261.7z M146.7,113.6
			c-2.2,0-4.5,0.1-6.7,0.3c-36.9,3.6-64,36.6-60.4,73.6c3.5,34.6,32.2,60.7,66.9,60.7c2.2,0,4.4-0.1,6.7-0.3
			c36.9-3.7,64-36.7,60.5-73.6C210.3,139.7,181.5,113.6,146.7,113.6z"/>
		<path d="M139.6,100.4L139.6,100.4c1.5,0,2.7,0.3,3.3,0.5c0.3,0.9,0.7,2.8,0.9,4c1,4.6,1.4,6.7,3.8,6.8l0,0l0.1,0l0.1,0
			c1.9,0,3.8,0.1,5.6,0.3l0.1,0l0,0l0,0c0.4,0,0.7,0.1,1.1,0.1c1.6,0.2,3,0.3,4.5,0.6l0.1,0l0.1,0l0.1,0h0.2c2.1,0,2.8-1.6,4.7-6
			c0.5-1.1,1.2-2.9,1.7-3.7c0.2,0,0.4,0,0.7,0c1.1,0,2.5,0.3,3.3,0.5c1.3,0.4,3,1.4,3.5,1.9c-0.1,0.9-0.4,2.8-0.7,4.1
			c-0.9,4.5-1.3,6.7,0.8,7.7l0.1,0.1l0.1,0.1c1.8,0.8,3.5,1.6,5,2.4l0.1,0.1l0,0l0,0c0.3,0.2,0.7,0.4,1,0.5c1.3,0.7,2.6,1.4,3.8,2.2
			l0,0l0.1,0.1l0.1,0.1c0.4,0.3,1,0.4,1.5,0.4c1.5,0,2.5-1,5.5-3.9c0.9-0.9,2.3-2.2,3-2.8c0.8,0.2,2.4,1,3.5,1.9
			c1.1,0.9,2.2,2.4,2.6,3.2c-0.4,0.8-1.5,2.4-2.2,3.5c-2.5,3.8-3.7,5.6-2.3,7.4l0.1,0.1l0.2,0.2c1.2,1.3,2.4,2.6,3.7,4.1l0.1,0.1
			l0,0l0,0c0.2,0.3,0.5,0.6,0.8,0.9c1,1.2,1.9,2.3,2.7,3.5l0,0.1c0.5,0.8,1.4,1.2,2.4,1.2c1,0,2.3-0.5,5.5-1.8
			c1.1-0.5,2.9-1.2,3.8-1.4c0.7,0.5,1.8,1.9,2.5,3.2c0.6,1.2,1.1,3.1,1.1,3.9c-0.7,0.6-2.3,1.7-3.3,2.4c-3.8,2.6-5.6,3.8-4.9,5.9
			l0,0.1l0.1,0.2c0.7,1.7,1.3,3.4,1.8,5.2l0,0.1l0,0.1l0,0.1l0.3,0.9c0.5,1.5,0.9,3,1.2,4.5l0,0.1l0,0.1l0,0
			c0.6,2.3,2.8,2.4,7.5,2.4c1.2,0,3.1,0,4,0.1c0.4,0.7,1,2.4,1.1,3.9c0.1,1.4-0.1,3.2-0.4,4c-0.9,0.3-2.8,0.7-4,0.9
			c-4.5,0.9-6.6,1.4-6.8,3.7l0,0.1l0,0.2c0,1.8-0.1,3.7-0.3,5.6l0,0.1l0,0l0,0.1l-0.1,0.9c-0.2,1.6-0.3,3.1-0.6,4.6l0,0l0,0l0,0.1
			c-0.4,2.4,1.6,3.3,6,5.1c1.1,0.5,2.9,1.2,3.7,1.7c0.1,0.8,0,2.6-0.5,4c-0.4,1.3-1.4,3-1.9,3.5c-0.9-0.1-2.7-0.4-4-0.7
			c-2.4-0.4-3.9-0.7-4.9-0.7c-1.4,0-2.2,0.6-2.6,1.2c4.2-10.1,6.1-21.3,5-32.9c-1.7-17.1-9.7-32.8-22.4-44.3
			c-12.7-11.4-29-17.7-45.9-17.7c-2.3,0-4.6,0.1-6.8,0.3c-37.6,3.7-65.2,37.4-61.6,75.1c0.3,3.1,0.8,6.2,1.6,9.2
			c-0.2-0.7-0.4-1.3-0.5-2l0-0.1l0-0.1c-0.6-2.3-2.8-2.3-7.4-2.3c-1.2,0-3.1,0-4-0.1c-0.4-0.7-1-2.4-1.1-3.9c-0.1-1.4,0.1-3.3,0.4-4
			c0.9-0.3,2.8-0.7,4-0.9c4.4-0.9,6.5-1.4,6.8-3.6l0-0.1l0-0.3c0-1.7,0.1-3.6,0.3-5.6l0-0.1l0,0l0,0l0.1-1.1c0.1-1.5,0.3-3,0.6-4.5
			l0-0.1c0.4-2.5-1.6-3.3-5.9-5.2c-1.1-0.5-2.9-1.2-3.7-1.7c-0.1-0.8,0-2.6,0.5-4c0.4-1.3,1.4-3,1.9-3.6c0.9,0.1,2.7,0.4,4,0.7
			c2.4,0.4,3.9,0.7,4.9,0.7c1.8,0,2.5-1,2.8-1.6l0,0l0-0.1l0-0.1l0-0.1c0.8-1.8,1.6-3.5,2.4-5.1l0,0l0,0l0.1-0.1l0.4-0.8
			c0.7-1.4,1.5-2.8,2.3-4.1l0.1-0.1l0.1-0.1c1.2-2-0.4-3.6-3.6-6.9c-0.9-0.9-2.2-2.2-2.8-2.9c0.2-0.8,1-2.4,1.9-3.5
			c0.9-1.1,2.4-2.2,3.2-2.5c0.8,0.4,2.4,1.5,3.5,2.2c3.3,2.2,4.4,2.8,5.6,2.8c0.6,0,1.1-0.2,1.6-0.5l0.3-0.2l0.2-0.2
			c1.3-1.3,2.7-2.5,4.2-3.7l0.1-0.1l0.7-0.5c1.2-1,2.5-2,3.8-2.9l0,0c2.1-1.4,1.2-3.4-0.5-7.9c-0.5-1.1-1.2-2.9-1.4-3.8
			c0.5-0.7,1.9-1.8,3.2-2.5c1-0.5,2.8-1.1,3.9-1.1c0.6,0.7,1.7,2.3,2.4,3.3c2.6,3.7,3.4,5,5.2,5l0.5,0l0.4-0.1l0.1,0l0.1,0
			c1.7-0.7,3.5-1.3,5.2-1.8l0.1,0l0.1,0l0.1,0l1-0.3c1.4-0.4,2.9-0.9,4.3-1.2l0.1,0l0.2,0c2.4-0.6,2.4-2.6,2.4-7.4
			c0-1.2,0-3.2,0.1-4.1c0.7-0.4,2.4-1,3.9-1.1C139.1,100.4,139.3,100.4,139.6,100.4 M83.1,206.7c1.7,4.2,3.9,8.3,6.4,12.1
			c-0.5-0.4-1.1-0.6-1.8-0.6c-1,0-2.2,0.5-5.4,1.7c-1.2,0.5-3,1.2-3.9,1.5c-0.7-0.5-1.8-1.9-2.5-3.2c-0.6-1.2-1.1-3.1-1.1-3.9
			c0.7-0.6,2.3-1.7,3.3-2.4C81.4,209.7,83.2,208.5,83.1,206.7 M204.3,218.1c-1.1,2,0.5,3.5,3.6,6.8c0.9,0.9,2.2,2.3,2.8,3
			c-0.2,0.8-1,2.4-2,3.5c-0.9,1.1-2.4,2.2-3.2,2.5c-0.8-0.4-2.4-1.5-3.5-2.2c-3.3-2.2-4.4-2.8-5.6-2.8c-0.4,0-0.8,0.1-1.1,0.2
			C198.8,225.8,201.7,222.1,204.3,218.1 M98.1,229.5c0.8,0.8,1.7,1.7,2.6,2.5c2.3,2.1,4.8,4.1,7.4,5.8c-0.1,0-0.3,0-0.4,0
			c-1.5,0-2.5,1-5.6,4c-0.9,0.9-2.2,2.2-2.9,2.8c-0.8-0.2-2.4-1-3.5-1.9c-1.1-0.9-2.2-2.4-2.5-3.2c0.4-0.8,1.5-2.4,2.2-3.5
			C97.4,232.7,98.6,230.9,98.1,229.5 M184.9,237.9c-1,1.4-0.2,3.4,1.3,7.1c0.5,1.1,1.2,2.9,1.4,3.8c-0.5,0.7-1.9,1.8-3.1,2.5
			c-1,0.5-2.8,1.1-3.9,1.1c-0.6-0.7-1.7-2.3-2.3-3.3c-2.3-3.4-3.3-4.8-4.8-5C177.5,242.4,181.4,240.3,184.9,237.9 M120.7,244.5
			c3.9,1.6,7.9,2.8,12,3.7c-1.4,0.5-2.2,2.2-3.7,5.8c-0.5,1.1-1.2,2.9-1.7,3.7c-0.2,0-0.4,0.1-0.8,0.1c-1.1,0-2.5-0.3-3.3-0.5
			c-1.3-0.4-3-1.4-3.6-1.9c0.1-0.9,0.4-2.8,0.7-4C121.1,247.8,121.5,245.8,120.7,244.5 M159.7,248.3c-1.1,1-1.2,3.1-1.2,6.9
			c0,1.2,0,3.1-0.1,4.1c-0.7,0.4-2.4,1-3.9,1.1c-0.2,0-0.5,0-0.8,0c-1.4,0-2.7-0.3-3.3-0.5c-0.3-0.9-0.7-2.8-0.9-4
			c-0.7-3.4-1.1-5.5-2.3-6.3c2,0,4.1-0.1,6.1-0.3C155.5,249.1,157.7,248.7,159.7,248.3 M139.6,97.7c-0.4,0-0.7,0-1,0
			c-1.8,0.2-5.2,1-6.1,2.5c-0.6,1.1-0.1,10.1-0.7,10.2l-0.1,0c-1.9,0.4-3.8,1-5.6,1.6l-0.2,0c-1.8,0.6-3.7,1.2-5.5,1.9l-0.1,0
			c0,0,0,0,0,0c-0.8,0-5.1-7.5-6.3-8.1c-0.3-0.2-0.8-0.2-1.3-0.2c-1.7,0-4,0.8-5.2,1.4c-1.6,0.9-4.4,3-4.6,4.6
			c-0.2,1.3,3.8,9.3,3.2,9.7l-0.1,0c-1.6,1.1-3.1,2.4-4.6,3.6l-0.1,0.1c-1.5,1.2-2.9,2.5-4.3,3.9l-0.1,0c0,0-0.1,0-0.1,0
			c-1,0-7.6-5-8.8-5.1c0,0-0.1,0-0.1,0c-1.6,0-4.3,2.2-5.4,3.6c-1.1,1.4-2.9,4.4-2.5,6c0.3,1.2,7.1,7.2,6.7,7.8l0,0.1
			c-1.1,1.6-2,3.4-2.9,5.1l-0.1,0.1c-0.9,1.7-1.8,3.5-2.5,5.3l0,0.1c0,0.1-0.2,0.1-0.5,0.1c-1.7,0-7.4-1.4-9.3-1.4
			c-0.2,0-0.4,0-0.5,0.1c-1.5,0.5-3.2,3.7-3.7,5.4c-0.5,1.7-1,5.2,0,6.5c0.8,1,9.3,3.9,9.2,4.6l0,0.1c-0.4,1.9-0.5,3.9-0.7,5.8
			l0,0.2c-0.2,1.9-0.3,3.9-0.3,5.8l0,0.1c0,0.7-8.9,1.9-9.9,2.7c-1.2,1.1-1.5,4.6-1.3,6.4c0.2,1.8,1,5.2,2.5,6.1
			c1.1,0.6,10.1,0.1,10.2,0.8l0,0.1c0.4,1.9,1,3.8,1.6,5.6l0,0.1c0.6,1.9,1.2,3.7,1.9,5.5l0,0.1c0.3,0.7-7.5,5.2-8.1,6.3
			c-0.7,1.5,0.4,4.9,1.2,6.5c0.8,1.6,3,4.4,4.6,4.6c0,0,0.1,0,0.1,0c1.5,0,8.2-3.3,9.5-3.3c0.1,0,0.2,0,0.2,0.1l0,0.1
			c1.1,1.6,2.4,3.1,3.6,4.6l0.1,0.1c1.2,1.5,2.5,3,3.9,4.3l0,0.1c0.5,0.5-5,7.6-5.1,8.9c-0.1,1.6,2.2,4.4,3.6,5.5
			c1.3,1,3.8,2.6,5.5,2.6c0.2,0,0.4,0,0.5-0.1c1.2-0.3,6.9-6.7,7.7-6.7c0,0,0,0,0.1,0l0.1,0c1.6,1.1,3.4,2,5.1,2.9l0.1,0.1
			c1.7,0.9,3.5,1.8,5.3,2.5l0.1,0c0.6,0.3-1.7,9-1.2,10.2c0.5,1.6,3.7,3.2,5.4,3.7c1,0.3,2.6,0.6,4,0.6c1,0,2-0.2,2.5-0.6
			c1-0.8,3.9-9.2,4.6-9.2c0,0,0,0,0,0l0.1,0c1.9,0.4,3.9,0.5,5.8,0.7l0.2,0c1.9,0.2,3.9,0.3,5.8,0.3l0.1,0c0.7,0,1.9,8.9,2.7,9.9
			c0.9,1,3.5,1.4,5.4,1.4c0.4,0,0.7,0,1,0c1.8-0.2,5.2-1,6-2.5c0.6-1.1,0.1-10.1,0.7-10.2l0.1,0c1.9-0.4,3.8-1,5.6-1.6l0.2,0
			c1.8-0.6,3.7-1.2,5.5-1.9l0.1,0c0,0,0,0,0,0c0.8,0,5.1,7.5,6.3,8.1c0.3,0.2,0.8,0.2,1.3,0.2c1.7,0,4-0.8,5.2-1.4
			c1.6-0.9,4.4-3,4.7-4.6c0.2-1.3-3.8-9.3-3.2-9.7l0.1-0.1c1.6-1.1,3.1-2.4,4.6-3.6l0.1-0.1c1.5-1.2,2.9-2.5,4.4-3.9l0.1,0
			c0,0,0.1,0,0.1,0c1,0,7.6,5,8.8,5.1c0,0,0.1,0,0.1,0c1.6,0,4.3-2.2,5.4-3.6c1.1-1.4,3-4.4,2.5-6c-0.3-1.3-7.1-7.2-6.7-7.8l0.1-0.1
			c1.1-1.6,1.9-3.4,2.9-5.1l0.1-0.1c0.9-1.7,1.8-3.5,2.5-5.3l0-0.1c0-0.1,0.2-0.1,0.5-0.1c1.7,0,7.4,1.4,9.3,1.4
			c0.2,0,0.4,0,0.5-0.1c1.6-0.5,3.2-3.7,3.7-5.4c0.5-1.7,1-5.2,0-6.5c-0.8-1-9.3-3.9-9.2-4.6l0-0.1c0.4-1.9,0.5-3.9,0.7-5.8l0-0.2
			c0.2-1.9,0.3-3.9,0.3-5.8l0-0.1c0-0.7,8.9-1.9,9.9-2.7c1.2-1.1,1.5-4.6,1.3-6.4c-0.2-1.8-1.1-5.2-2.5-6.1
			c-1.1-0.7-10.1-0.1-10.2-0.8l0-0.1c-0.4-1.9-1-3.8-1.6-5.6l0-0.1c-0.6-1.9-1.2-3.7-1.9-5.5l0-0.1c-0.3-0.7,7.5-5.2,8.1-6.3
			c0.7-1.5-0.4-4.9-1.2-6.5c-0.9-1.6-3-4.4-4.6-4.6c0,0-0.1,0-0.1,0c-1.4,0-8.2,3.3-9.5,3.3c-0.1,0-0.2,0-0.2-0.1l0-0.1
			c-1.1-1.6-2.4-3.1-3.6-4.6l-0.1-0.1c-1.2-1.5-2.5-2.9-3.9-4.3l0-0.1c-0.5-0.5,5-7.6,5.1-8.9c0.1-1.6-2.2-4.4-3.6-5.5
			c-1.3-1-3.8-2.6-5.5-2.6c-0.2,0-0.4,0-0.5,0.1c-1.2,0.3-6.9,6.7-7.7,6.7c0,0,0,0-0.1,0l-0.1-0.1c-1.6-1.1-3.4-1.9-5.1-2.9
			l-0.1-0.1c-1.7-0.9-3.5-1.8-5.3-2.5l-0.1,0c-0.6-0.3,1.7-9,1.3-10.2c-0.5-1.6-3.7-3.2-5.4-3.7c-1-0.3-2.6-0.6-4.1-0.6
			c-1,0-1.9,0.2-2.5,0.6c-1,0.8-3.9,9.2-4.6,9.2c0,0,0,0,0,0l-0.1,0c-1.9-0.4-3.9-0.5-5.8-0.7l-0.2,0c-1.9-0.2-3.9-0.3-5.8-0.3
			l-0.1,0c-0.7,0-1.9-8.9-2.7-9.9C144.1,98.1,141.5,97.7,139.6,97.7L139.6,97.7z M146.6,246.9c-33.5,0-62.2-25.5-65.6-59.5
			c-3.5-36.4,23-68.6,59.2-72.1c2.2-0.2,4.4-0.3,6.6-0.3c33.5,0,62.3,25.5,65.6,59.5c3.4,36.2-23,68.5-59.3,72.1
			C150.9,246.8,148.8,246.9,146.6,246.9L146.6,246.9z"/>
	</g>
	<g>
		<path fill="#FFFFFF" d="M146.6,188c-3.6,0-6.5-2.7-6.9-6.2c0-0.2,0-0.4,0-0.7l0-0.7l-37.7-26.6c-0.3-0.2-0.5-0.5-0.5-0.9
			c-0.1-0.4,0-0.7,0.2-1l1.9-2.7c0.3-0.4,0.7-0.6,1.1-0.6c0.3,0,0.5,0.1,0.8,0.2l37.4,26.4l0.7-0.4c0.8-0.4,1.6-0.6,2.4-0.7
			c0.2,0,0.5,0,0.7,0c1.2,0,2.3,0.3,3.4,0.9l0.8,0.4l20.9-16.8c0.3-0.2,0.6-0.3,0.8-0.3c0.4,0,0.8,0.2,1,0.5l2.1,2.6
			c0.2,0.3,0.3,0.6,0.3,1s-0.2,0.7-0.5,0.9L153.5,181l0,0.6c-0.3,3.3-2.9,6-6.2,6.3C147,188,146.8,188,146.6,188
			C146.6,188,146.6,188,146.6,188z"/>
		<path d="M104.6,149.9L104.6,149.9l36.8,25.9l1.3,0.9l1.4-0.7c0.6-0.3,1.3-0.5,1.9-0.6c0.2,0,0.4,0,0.6,0c0.9,0,1.9,0.2,2.7,0.7
			l1.6,0.9l1.4-1.1l20.2-16.2l2.1,2.6l-21.5,17.3l-0.9,0.7l-0.1,1.2c-0.2,2.7-2.3,4.9-5,5.1c-0.2,0-0.4,0-0.6,0
			c-2.9,0-5.2-2.2-5.5-5c0-0.2,0-0.3,0-0.5l0-1.4l-1.1-0.8l-37.2-26.2L104.6,149.9C104.6,149.9,104.6,149.9,104.6,149.9
			 M104.6,147.3c-0.8,0-1.7,0.4-2.2,1.1l-1.9,2.7c-0.9,1.2-0.6,2.9,0.6,3.7l37.2,26.2c0,0.3,0,0.5,0,0.8c0.4,4.2,4,7.4,8.2,7.4
			c0.3,0,0.5,0,0.8,0c4-0.4,7.1-3.7,7.4-7.6l21.5-17.3c1.2-0.9,1.3-2.6,0.4-3.8l-2.1-2.6c-0.5-0.7-1.3-1-2.1-1
			c-0.6,0-1.2,0.2-1.7,0.6l-20.2,16.2c-1.2-0.7-2.6-1.1-4-1.1c-0.3,0-0.5,0-0.8,0c-1,0.1-2,0.4-2.8,0.8l-36.8-25.9
			C105.7,147.4,105.2,147.3,104.6,147.3L104.6,147.3z"/>
	</g>
</g>
</svg>
