<?xml version="1.0" encoding="utf-8"?>
<!-- Generator: Adobe Illustrator 17.0.0, SVG Export Plug-In . SVG Version: 6.00 Build 0)  -->
<!DOCTYPE svg PUBLIC "-//W3C//DTD SVG 1.1//EN" "http://www.w3.org/Graphics/SVG/1.1/DTD/svg11.dtd">
<svg version="1.1" id="Layer_1" xmlns="http://www.w3.org/2000/svg" xmlns:xlink="http://www.w3.org/1999/xlink" x="0px" y="0px"
	 width="850px" height="400px" viewBox="0 0 850 400" enable-background="new 0 0 850 400" xml:space="preserve">
<rect id="background" fill="#6B919D" width="850" height="400"/>
<g id="wordmark">
	<path id="h" fill="#FFFFFF" d="M286.474,169.727c7.76-12.108,17.693-18.78,30.42-18.78c11.172,0,20.031,5.902,20.031,17.074
		c0,10.401-12.423,39.898-12.423,45.637c0,3.261,1.706,4.499,4.651,4.499c2.023,0,3.577-0.303,5.75-1.087l-3.109,11.488
		c-4.183,1.403-8.847,2.023-13.346,2.023c-10.085,0-15.988-3.88-15.988-13.359c0-8.847,12.108-37.093,12.108-44.701
		c0-5.422-3.728-8.215-8.531-8.215c-12.739,0-23.76,18.313-35.4,64.252H250l23.431-86.76c0.935-3.577,0.632-4.663-1.39-4.663h-8.075
		l3.261-11.64h13.51c7.596,0,14.9-0.771,18.464-1.554L286.474,169.727z"/>
	<path id="a" fill="#FFFFFF" d="M344.499,202.168c0-26.073,17.074-51.222,42.06-51.222c11.64,0,19.715,6.218,22.357,16.607
		l4.032-14.585h7.76c5.586,0,9.934-0.62,13.042-1.554l-11.804,44.701c-2.01,7.609-4.032,13.814-4.032,17.074
		c0,3.577,1.858,4.966,4.815,4.966c2.01,0,3.412-0.303,5.737-1.087l-3.109,11.488c-4.183,1.087-8.063,2.023-12.726,2.023
		c-10.704,0-16.442-4.663-16.442-13.359c-6.218,7.924-14.9,13.359-25.15,13.359C354.901,230.579,344.499,218.624,344.499,202.168z
		 M404.252,179.205c0-9.314-5.737-15.532-14.116-15.532c-13.978,0-24.998,18.628-24.998,38.192c0,10.085,5.902,15.988,14.281,15.988
		C393.232,217.852,404.252,197.669,404.252,179.205z"/>
	<path id="r" fill="#FFFFFF" d="M474.387,165.543c5.435-9.163,13.03-15.051,22.345-15.051c9.63,0,15.684,6.054,15.988,14.736
		c0.315,10.717-6.205,19.867-15.368,19.867c-6.673,0-10.553-3.88-10.704-9.314c-0.151-4.802,3.564-9.617,8.999-10.388
		c-0.923-1.403-3.261-2.338-5.586-2.338c-12.575,0-18.78,14.281-25.921,40.67l-6.673,24.834h-20.802l16.303-59.285
		c0.935-3.577,0.468-4.663-1.403-4.663h-9.301l3.097-11.64h14.433c7.609,0,14.749-0.771,18.477-1.554L474.387,165.543z"/>
	<path id="p" fill="#FFFFFF" d="M497.872,243.609h6.825c1.706,0,2.793-0.62,3.728-4.032l19.248-70.306
		c0.923-3.577,0.468-4.663-1.403-4.663h-8.847l3.109-11.64h13.965c7.609,0,14.749-0.771,18.464-1.554l-3.097,11.337
		c5.902-6.989,13.814-11.804,23.128-11.804c17.074,0,27.008,12.423,27.008,29.181c0,26.388-15.52,50.451-40.67,50.451
		c-12.411,0-20.486-6.521-23.128-16.454l-6.825,25.453c-0.935,3.412-0.164,4.032,1.554,4.032h7.911l-3.109,11.64h-40.972
		L497.872,243.609z M579.198,179.66c-0.151-10.085-5.902-15.988-14.281-15.988c-13.965,0-24.366,20.183-24.214,38.648
		c0,7.924,5.283,15.368,14.281,15.368C568.177,217.688,579.349,199.224,579.198,179.66z"/>
</g>
</svg>
