<?xml version="1.0" encoding="utf-8"?>
<!-- Generator: Adobe Illustrator 17.0.0, SVG Export Plug-In . SVG Version: 6.00 Build 0)  -->
<!DOCTYPE svg PUBLIC "-//W3C//DTD SVG 1.1//EN" "http://www.w3.org/Graphics/SVG/1.1/DTD/svg11.dtd">
<svg version="1.1" id="Layer_1" xmlns="http://www.w3.org/2000/svg" xmlns:xlink="http://www.w3.org/1999/xlink" x="0px" y="0px"
	 width="850px" height="400px" viewBox="0 0 850 400" enable-background="new 0 0 850 400" xml:space="preserve">
<rect id="background_1_" fill="#D2576D" width="850" height="400"/>
<g>
	<g>
		<path fill="#FFFFFF" d="M338.928,241.249c0,3.061-0.772,5.409-2.316,7.046c-1.543,1.634-3.775,2.453-6.691,2.453h-1.34v10.444
			h-5.361V232.38h7.312C336.13,232.382,338.928,235.337,338.928,241.249z M328.581,246.097h1.024c1.314,0,2.294-0.36,2.937-1.083
			c0.643-0.723,0.967-1.905,0.967-3.548c0-1.511-0.297-2.632-0.887-3.362c-0.592-0.729-1.505-1.092-2.738-1.092h-1.303
			L328.581,246.097L328.581,246.097z"/>
		<path fill="#FFFFFF" d="M341.294,261.192v-28.812h5.361v24.121h7.43v4.69H341.294L341.294,261.192z"/>
		<path fill="#FFFFFF" d="M372.677,261.192l-1.656-7.271h-7.507l-1.656,7.271h-5.361l7.134-28.93h7.272l7.152,28.93H372.677z
			 M370.018,249.171l-1.537-6.701c-0.092-0.407-0.298-1.429-0.621-3.065c-0.321-1.634-0.517-2.729-0.58-3.28
			c-0.172,1.131-0.388,2.374-0.651,3.735c-0.263,1.358-0.945,4.464-2.05,9.311L370.018,249.171L370.018,249.171z"/>
		<path fill="#FFFFFF" d="M387.808,261.192h-5.34v-24.101h-5.517v-4.711h16.376v4.711h-5.518L387.808,261.192L387.808,261.192z"/>
		<path fill="#FFFFFF" d="M401.722,261.192H396.4v-28.812h12.909v4.632h-7.586v8.001h7.074v4.63h-7.074V261.192z"/>
		<path fill="#FFFFFF" d="M432.742,246.749c0,4.769-0.895,8.435-2.68,10.996c-1.789,2.561-4.343,3.842-7.667,3.842
			c-3.336,0-5.899-1.276-7.685-3.832c-1.787-2.554-2.68-6.237-2.68-11.045c0-4.769,0.893-8.425,2.68-10.968
			c1.787-2.541,4.362-3.812,7.725-3.812c3.324,0,5.873,1.278,7.646,3.832C431.853,238.317,432.742,241.98,432.742,246.749z
			 M417.507,246.749c0,3.285,0.415,5.786,1.24,7.507c0.83,1.72,2.044,2.583,3.646,2.583c3.232,0,4.848-3.363,4.848-10.091
			c0-6.726-1.602-10.091-4.809-10.091c-1.629,0-2.856,0.855-3.686,2.572C417.922,240.943,417.507,243.45,417.507,246.749z"/>
		<path fill="#FFFFFF" d="M442.296,249.981v11.212h-5.361v-28.812h7.015c2.969,0,5.161,0.704,6.572,2.109
			c1.413,1.406,2.119,3.553,2.119,6.443c0,3.639-1.229,6.182-3.684,7.628l5.537,12.631h-5.736l-4.551-11.212L442.296,249.981
			L442.296,249.981z M442.296,245.369h1.382c1.261,0,2.165-0.359,2.718-1.075c0.552-0.715,0.83-1.783,0.83-3.202
			c0-1.472-0.293-2.518-0.879-3.143c-0.584-0.623-1.487-0.935-2.71-0.935h-1.34V245.369z"/>
		<path fill="#FFFFFF" d="M468.775,261.192l-5.48-24.534h-0.216c0.249,1.892,0.373,3.626,0.373,5.203v19.332h-4.966v-28.812h8.239
			l4.924,22.643h0.158l4.887-22.643h8.355v28.812h-5.082v-19.528c0-1.616,0.09-3.271,0.273-4.966h-0.158l-5.458,24.495
			L468.775,261.192L468.775,261.192z"/>
	</g>
	<path fill="#FFFFFF" d="M369.335,202.217c-2.647-2.81-3.981-6.767-3.981-11.863c0-4.899,0.648-9.666,1.954-14.301
		c1.295-4.632,3.068-8.75,5.303-12.343c2.239-3.588,4.901-6.452,7.971-8.588c3.064-2.128,6.375-3.205,9.921-3.205
		c4.263,0,7.698,1.432,10.299,4.302c2.605,2.856,3.912,6.636,3.912,11.319c0,4.69-0.649,9.347-1.958,13.975
		c-1.293,4.644-3.067,8.815-5.298,12.507c-2.251,3.7-4.903,6.699-7.968,8.977c-3.081,2.301-6.332,3.439-9.765,3.439
		C375.446,206.438,371.985,205.029,369.335,202.217 M369.728,143.486c-5.205,2.923-9.69,6.772-13.431,11.563
		c-3.749,4.793-6.646,10.286-8.675,16.476c-2.027,6.204-3.046,12.571-3.046,19.138c0,4.164,0.624,7.989,1.874,11.486
		c1.246,3.477,3.042,6.499,5.388,9.054c2.346,2.55,5.154,4.534,8.431,5.934c3.289,1.407,6.957,2.107,11.025,2.107
		c5.205,0,9.934-1.247,14.211-3.743c4.267-2.503,7.969-5.73,11.082-9.685c0,8.951,5.523,13.428,16.557,13.428
		c2.395,0,4.609-0.209,6.637-0.626c2.04-0.415,4.095-0.879,6.169-1.401l3.128-11.561c-1.148,0.426-2.133,0.707-2.968,0.864
		c-0.833,0.144-1.77,0.234-2.809,0.234c-3.227,0-4.84-1.657-4.84-4.995c0-1.669,0.415-3.988,1.246-6.956
		c0.832-2.976,1.771-6.382,2.812-10.228l11.877-44.994c-1.565,0.525-3.443,0.912-5.632,1.169c-2.177,0.272-4.68,0.391-7.491,0.391
		h-7.81l-4.068,14.688c-1.344-5.314-3.948-9.42-7.808-12.343c-3.849-2.902-8.737-4.372-14.676-4.372
		C380.665,139.114,374.935,140.585,369.728,143.486 M550.067,204.953c-1.771-0.88-3.277-2.021-4.533-3.434
		c-1.242-1.401-2.188-3.053-2.804-4.919c-0.63-1.873-0.937-3.8-0.937-5.78c0-4.677,0.602-9.352,1.802-13.983
		c1.199-4.633,2.881-8.795,5.071-12.498c2.186-3.694,4.767-6.686,7.731-8.984c2.972-2.282,6.221-3.434,9.765-3.434
		c4.268,0,7.698,1.407,10.306,4.22c2.597,2.809,3.961,6.768,4.07,11.874c0,4.892-0.627,9.657-1.883,14.287
		c-1.247,4.645-2.994,8.727-5.231,12.268c-2.235,3.546-4.842,6.381-7.81,8.506c-2.968,2.138-6.122,3.201-9.447,3.201
		C553.865,206.274,551.839,205.834,550.067,204.953 M561.398,142.403c-3.912,2.176-7.368,5.044-10.39,8.59l3.119-11.412
		c-1.871,0.426-4.471,0.779-7.809,1.096c-3.324,0.306-6.919,0.464-10.778,0.464H521.49l-3.131,11.722h8.911
		c0.937,0,1.536,0.341,1.795,1.015c0.258,0.682,0.137,1.905-0.391,3.665l-19.37,70.765c-0.526,1.767-1.065,2.887-1.638,3.362
		c-0.578,0.464-1.28,0.698-2.115,0.698h-6.868l-3.13,11.72h41.25l3.113-11.72h-7.971c-0.833,0-1.427-0.234-1.794-0.698
		c-0.365-0.475-0.291-1.595,0.239-3.361l6.866-25.624c1.363,5.01,4.011,9.017,7.97,12.033c3.959,3.021,9.06,4.526,15.31,4.526
		c6.345,0,12.056-1.411,17.096-4.214c5.05-2.818,9.352-6.563,12.891-11.246c3.535-4.693,6.244-10.066,8.121-16.167
		c1.877-6.1,2.811-12.465,2.811-19.136c0-4.17-0.604-8.042-1.803-11.635c-1.19-3.591-2.953-6.72-5.298-9.371
		c-2.341-2.65-5.205-4.716-8.593-6.172c-3.386-1.452-7.214-2.186-11.486-2.186C569.606,139.114,565.292,140.209,561.398,142.403
		 M483.09,142.71c-3.796,2.71-7.049,6.4-9.76,11.096l3.905-14.224c-1.875,0.426-4.481,0.779-7.806,1.096
		c-3.336,0.306-6.932,0.464-10.776,0.464h-14.529l-3.131,11.722h9.37c0.943,0,1.546,0.341,1.807,1.015
		c0.252,0.682,0.132,1.905-0.396,3.665l-16.396,59.673h20.928l6.724-24.998c1.755-6.661,3.531-12.547,5.298-17.643
		c1.779-5.107,3.68-9.371,5.707-12.807c2.032-3.442,4.267-6.043,6.711-7.815c2.457-1.764,5.241-2.658,8.357-2.658
		c1.154,0,2.24,0.212,3.293,0.624c1.037,0.416,1.819,0.993,2.328,1.724c-2.697,0.416-4.909,1.661-6.631,3.753
		c-1.716,2.078-2.535,4.314-2.424,6.71c0.097,2.71,1.096,4.948,2.973,6.72c1.871,1.769,4.471,2.652,7.804,2.652
		c2.289,0,4.403-0.552,6.336-1.641c1.92-1.085,3.589-2.55,4.995-4.375c1.407-1.817,2.471-3.918,3.203-6.325
		c0.721-2.397,1.037-4.94,0.93-7.651c-0.21-4.375-1.712-7.942-4.525-10.706c-2.808-2.749-6.666-4.13-11.557-4.13
		C491.135,138.648,486.886,140.007,483.09,142.71 M291.971,113.028c-3.385,0.311-7.001,0.473-10.864,0.473h-13.586l-3.274,11.706
		h8.125c1.037,0,1.658,0.341,1.867,1.027c0.209,0.676,0.05,1.896-0.462,3.669l-23.598,87.313h20.788
		c2.904-11.561,5.793-21.423,8.663-29.601c2.859-8.178,5.754-14.859,8.667-20.075c2.919-5.21,5.891-8.997,8.907-11.402
		c3.017-2.398,6.143-3.597,9.372-3.597c2.394,0,4.425,0.712,6.084,2.115c1.676,1.407,2.51,3.459,2.51,6.172
		c0,1.244-0.32,3.045-0.944,5.389c-0.623,2.348-1.38,4.912-2.261,7.734c-0.887,2.813-1.858,5.769-2.894,8.895
		c-1.037,3.133-2.007,6.156-2.884,9.07c-0.894,2.91-1.637,5.592-2.263,8.04c-0.635,2.453-0.939,4.402-0.939,5.859
		c0,4.784,1.401,8.214,4.217,10.31c2.806,2.077,6.769,3.117,11.863,3.117c2.297,0,4.58-0.151,6.882-0.467
		c2.288-0.315,4.47-0.83,6.563-1.56l3.112-11.561c-2.074,0.732-4.005,1.099-5.779,1.099c-3.114,0-4.678-1.519-4.678-4.536
		c0-1.451,0.648-4.164,1.954-8.126c1.295-3.946,2.724-8.295,4.29-13.038c1.563-4.741,2.994-9.396,4.303-13.977
		c1.294-4.587,1.954-8.175,1.954-10.782c0-5.616-1.954-9.884-5.866-12.806c-3.902-2.902-8.665-4.372-14.288-4.372
		c-6.463,0-12.178,1.614-17.178,4.838c-5.003,3.241-9.484,7.921-13.443,14.069l12.807-46.082
		C297.922,112.355,295.36,112.718,291.971,113.028"/>
</g>
</svg>
