<?xml version="1.0" encoding="utf-8"?>
<!-- Generator: Adobe Illustrator 17.0.2, SVG Export Plug-In . SVG Version: 6.00 Build 0)  -->
<!DOCTYPE svg PUBLIC "-//W3C//DTD SVG 1.1//EN" "http://www.w3.org/Graphics/SVG/1.1/DTD/svg11.dtd">
<svg version="1.1" id="Layer_1" xmlns="http://www.w3.org/2000/svg" xmlns:xlink="http://www.w3.org/1999/xlink" x="0px" y="0px"
	 width="850px" height="450px" viewBox="0 0 850 450" enable-background="new 0 0 850 450" xml:space="preserve">
<rect id="background" fill="#D2576D" width="850" height="450"/>
<g>
	<g>
		<path fill="#FFFFFF" d="M324.242,268.183c0,3.549-0.895,6.272-2.686,8.17c-1.789,1.895-4.377,2.844-7.759,2.844h-1.554v12.111
			h-6.216v-33.41h8.479C320.997,257.9,324.242,261.327,324.242,268.183z M312.243,273.804h1.188c1.524,0,2.66-0.418,3.406-1.256
			c0.746-0.838,1.121-2.209,1.121-4.114c0-1.752-0.344-3.052-1.029-3.898c-0.686-0.845-1.745-1.266-3.175-1.266h-1.511
			L312.243,273.804L312.243,273.804z"/>
		<path fill="#FFFFFF" d="M326.986,291.309v-33.41h6.216v27.971h8.616v5.439L326.986,291.309L326.986,291.309z"/>
		<path fill="#FFFFFF" d="M363.377,291.309l-1.92-8.432h-8.705l-1.92,8.432h-6.216l8.272-33.547h8.433l8.294,33.547H363.377z
			 M360.294,277.369l-1.782-7.77c-0.107-0.472-0.346-1.657-0.72-3.554c-0.372-1.895-0.599-3.165-0.672-3.804
			c-0.2,1.311-0.45,2.753-0.755,4.331c-0.305,1.575-1.096,5.176-2.377,10.797L360.294,277.369L360.294,277.369z"/>
		<path fill="#FFFFFF" d="M380.923,291.309h-6.192v-27.947h-6.398v-5.463h18.989v5.463h-6.399V291.309z"/>
		<path fill="#FFFFFF" d="M397.058,291.309h-6.172v-33.41h14.969v5.371h-8.797v9.278h8.203v5.369h-8.203V291.309z"/>
		<path fill="#FFFFFF" d="M433.028,274.56c0,5.53-1.038,9.781-3.108,12.751c-2.074,2.97-5.036,4.455-8.891,4.455
			c-3.869,0-6.841-1.48-8.912-4.444c-2.072-2.962-3.108-7.232-3.108-12.808c0-5.53,1.036-9.77,3.108-12.718
			c2.072-2.947,5.058-4.42,8.958-4.42c3.855,0,6.81,1.482,8.866,4.444C431.998,264.783,433.028,269.03,433.028,274.56z
			 M415.362,274.56c0,3.809,0.481,6.709,1.438,8.705c0.962,1.995,2.37,2.995,4.228,2.995c3.748,0,5.622-3.9,5.622-11.701
			c0-7.8-1.858-11.701-5.576-11.701c-1.889,0-3.312,0.992-4.274,2.982C415.843,267.828,415.362,270.735,415.362,274.56z"/>
		<path fill="#FFFFFF" d="M444.107,278.308v13.001h-6.216v-33.41h8.135c3.443,0,5.985,0.816,7.621,2.446
			c1.639,1.63,2.457,4.12,2.457,7.471c0,4.22-1.425,7.169-4.272,8.845l6.421,14.647h-6.651l-5.277-13.001H444.107z M444.107,272.96
			h1.602c1.462,0,2.511-0.416,3.152-1.247c0.64-0.829,0.962-2.068,0.962-3.713c0-1.707-0.34-2.92-1.019-3.645
			c-0.677-0.723-1.724-1.084-3.143-1.084h-1.554V272.96z"/>
		<path fill="#FFFFFF" d="M474.812,291.309l-6.355-28.45h-0.25c0.289,2.194,0.433,4.205,0.433,6.033v22.417h-5.759v-33.41h9.554
			l5.71,26.257h0.183l5.667-26.257h9.689v33.41h-5.893v-22.645c0-1.874,0.104-3.793,0.317-5.759h-0.183l-6.329,28.404H474.812z"/>
	</g>
	<path fill="#FFFFFF" d="M359.502,222.921c-3.07-3.259-4.616-7.847-4.616-13.756c0-5.681,0.751-11.209,2.266-16.583
		c1.502-5.371,3.558-10.147,6.149-14.313c2.596-4.161,5.683-7.482,9.243-9.959c3.553-2.468,7.393-3.716,11.504-3.716
		c4.943,0,8.927,1.661,11.943,4.989c3.021,3.312,4.536,7.695,4.536,13.126c0,5.439-0.753,10.839-2.27,16.205
		c-1.499,5.385-3.557,10.222-6.144,14.503c-2.61,4.29-5.686,7.768-9.24,10.41c-3.573,2.668-7.343,3.988-11.324,3.988
		C366.588,227.816,362.575,226.182,359.502,222.921 M359.958,154.817c-6.036,3.39-11.236,7.853-15.575,13.408
		c-4.347,5.558-7.707,11.928-10.059,19.105c-2.35,7.194-3.532,14.577-3.532,22.192c0,4.828,0.724,9.264,2.173,13.319
		c1.445,4.032,3.527,7.536,6.248,10.499c2.72,2.957,5.977,5.258,9.776,6.881c3.814,1.632,8.067,2.443,12.784,2.443
		c6.036,0,11.519-1.446,16.479-4.34c4.948-2.902,9.241-6.645,12.851-11.231c0,10.38,6.405,15.571,19.2,15.571
		c2.777,0,5.345-0.242,7.696-0.726c2.366-0.481,4.748-1.019,7.153-1.625l3.627-13.406c-1.331,0.494-2.473,0.82-3.442,1.002
		c-0.966,0.167-2.052,0.271-3.257,0.271c-3.742,0-5.612-1.922-5.612-5.792c0-1.935,0.481-4.625,1.445-8.066
		c0.965-3.451,2.054-7.401,3.261-11.86l13.772-52.175c-1.815,0.609-3.993,1.058-6.531,1.356c-2.524,0.315-5.427,0.453-8.686,0.453
		h-9.057l-4.717,17.032c-1.558-6.162-4.578-10.923-9.054-14.313c-4.463-3.365-10.132-5.07-17.018-5.07
		C372.64,149.747,365.996,151.453,359.958,154.817 M569.078,226.094c-2.054-1.02-3.8-2.343-5.256-3.982
		c-1.44-1.625-2.537-3.54-3.252-5.704c-0.73-2.172-1.087-4.407-1.087-6.702c0-5.423,0.698-10.844,2.09-16.215
		c1.39-5.372,3.341-10.199,5.88-14.493c2.535-4.283,5.528-7.753,8.965-10.418c3.446-2.646,7.214-3.982,11.323-3.982
		c4.949,0,8.927,1.632,11.951,4.893c3.011,3.257,4.593,7.848,4.719,13.769c0,5.673-0.727,11.198-2.183,16.567
		c-1.446,5.386-3.472,10.12-6.066,14.226c-2.592,4.112-5.615,7.399-9.057,9.863c-3.442,2.479-7.099,3.712-10.955,3.712
		C573.482,227.626,571.133,227.115,569.078,226.094 M582.217,153.561c-4.536,2.523-8.544,5.849-12.048,9.961l3.617-13.233
		c-2.17,0.494-5.185,0.903-9.055,1.271c-3.855,0.355-8.023,0.538-12.498,0.538H535.94l-3.631,13.593h10.333
		c1.086,0,1.781,0.395,2.081,1.177c0.299,0.791,0.159,2.209-0.453,4.25l-22.461,82.059c-0.61,2.049-1.235,3.348-1.899,3.898
		c-0.67,0.538-1.484,0.809-2.452,0.809h-7.964l-3.629,13.59h47.833l3.61-13.59h-9.243c-0.966,0-1.655-0.271-2.08-0.809
		c-0.423-0.551-0.337-1.849,0.277-3.898l7.962-29.713c1.58,5.81,4.651,10.456,9.242,13.953c4.591,3.503,10.506,5.248,17.753,5.248
		c7.358,0,13.98-1.636,19.825-4.887c5.856-3.268,10.844-7.611,14.948-13.041c4.099-5.442,7.241-11.672,9.417-18.747
		c2.177-7.074,3.26-14.454,3.26-22.19c0-4.835-0.7-9.325-2.091-13.492c-1.38-4.164-3.424-7.793-6.144-10.867
		c-2.715-3.073-6.036-5.469-9.964-7.157c-3.926-1.684-8.365-2.535-13.319-2.535C591.735,149.747,586.733,151.017,582.217,153.561
		 M491.412,153.917c-4.402,3.142-8.174,7.422-11.318,12.867l4.528-16.494c-2.174,0.494-5.196,0.903-9.052,1.271
		c-3.868,0.355-8.038,0.538-12.496,0.538h-16.848l-3.631,13.593h10.865c1.094,0,1.793,0.395,2.095,1.177
		c0.292,0.791,0.153,2.209-0.459,4.25l-19.013,69.197h24.268l7.797-28.988c2.035-7.724,4.095-14.549,6.143-20.459
		c2.063-5.922,4.267-10.867,6.618-14.851c2.356-3.991,4.948-7.007,7.782-9.062c2.849-2.045,6.078-3.082,9.691-3.082
		c1.338,0,2.597,0.246,3.819,0.724c1.203,0.482,2.109,1.152,2.7,1.999c-3.127,0.482-5.693,1.926-7.689,4.352
		c-1.99,2.41-2.939,5.003-2.811,7.781c0.112,3.143,1.271,5.738,3.448,7.793c2.17,2.051,5.185,3.075,9.05,3.075
		c2.654,0,5.106-0.64,7.347-1.903c2.227-1.258,4.162-2.957,5.792-5.073c1.631-2.107,2.865-4.543,3.714-7.334
		c0.836-2.779,1.203-5.728,1.078-8.872c-0.243-5.073-1.985-9.21-5.247-12.415c-3.256-3.188-7.73-4.789-13.401-4.789
		C500.741,149.207,495.814,150.783,491.412,153.917 M269.791,119.498c-3.925,0.361-8.118,0.549-12.598,0.549h-15.754l-3.796,13.574
		h9.422c1.202,0,1.923,0.395,2.165,1.191c0.242,0.784,0.058,2.199-0.536,4.254l-27.364,101.248h24.106
		c3.367-13.406,6.717-24.842,10.045-34.325c3.315-9.483,6.672-17.23,10.05-23.279c3.385-6.041,6.831-10.433,10.328-13.222
		c3.498-2.781,7.123-4.171,10.868-4.171c2.776,0,5.131,0.826,7.055,2.452c1.943,1.632,2.91,4.011,2.91,7.157
		c0,1.443-0.371,3.531-1.095,6.249c-0.723,2.723-1.6,5.696-2.622,8.968c-1.029,3.262-2.154,6.69-3.356,10.315
		c-1.202,3.633-2.327,7.138-3.344,10.518c-1.037,3.374-1.898,6.485-2.624,9.323c-0.736,2.844-1.089,5.104-1.089,6.794
		c0,5.548,1.625,9.525,4.89,11.956c3.254,2.408,7.849,3.614,13.756,3.614c2.664,0,5.311-0.175,7.98-0.541
		c2.653-0.365,5.183-0.962,7.61-1.809l3.609-13.406c-2.405,0.849-4.644,1.274-6.701,1.274c-3.611,0-5.425-1.761-5.425-5.26
		c0-1.682,0.751-4.828,2.266-9.423c1.502-4.576,3.159-9.619,4.975-15.119c1.812-5.498,3.472-10.896,4.99-16.208
		c1.5-5.319,2.266-9.48,2.266-12.503c0-6.512-2.266-11.461-6.802-14.85c-4.525-3.365-10.048-5.07-16.568-5.07
		c-7.494,0-14.122,1.872-19.919,5.61c-5.801,3.758-10.998,9.185-15.588,16.314l14.851-53.436
		C276.691,118.717,273.72,119.139,269.791,119.498"/>
</g>
</svg>
